<svg width="284" height="20" viewBox="0 0 284 20" fill="none" xmlns="http://www.w3.org/2000/svg">
<path fill-rule="evenodd" clip-rule="evenodd" d="M2.48648 8.04472C2.34961 8.38689 2.28117 8.75188 2.18992 9.11687C1.96181 10.2118 1.77931 11.3752 1.52839 12.4702C1.02653 12.4702 0.501858 12.4702 0 12.4702C0.570293 8.77469 1.61963 5.17044 2.07587 1.2012C2.57772 1.2012 3.07958 1.2012 3.55863 1.2012C3.49019 1.56618 3.39895 1.90836 3.35332 2.27335C3.35332 2.29616 3.3077 2.31897 3.3077 2.36459C3.99205 1.47494 5.04139 0.859021 6.70665 1.04152C8.34909 1.2012 9.23875 2.50147 9.30719 4.02985C9.46687 6.94975 7.91567 9.59591 4.72203 9.36779C3.67269 9.29936 2.87428 8.91156 2.48648 8.04472ZM4.63078 2.50147C3.28489 3.18582 1.98462 6.33383 3.513 7.67973C4.51672 8.56938 6.09073 8.09034 6.75227 7.26912C7.50506 6.33383 8.18941 3.64205 7.04882 2.68396C6.66102 2.36459 6.04511 2.25054 5.47481 2.31897C5.0642 2.34178 4.8589 2.38741 4.63078 2.50147Z" fill="#030000"/>
<path fill-rule="evenodd" clip-rule="evenodd" d="M16.3559 9.20814C15.8769 9.20814 15.3979 9.20814 14.896 9.20814C14.9644 8.75191 15.0557 8.31848 15.1469 7.88506C14.7135 8.52379 13.9607 9.25376 12.8657 9.36782C11.2917 9.52751 9.8546 8.7291 9.71773 7.42883C9.67211 6.9954 9.69492 6.28824 10.0599 5.74076C10.9724 4.30362 13.3448 4.21238 15.6944 4.28081C16.4016 1.68027 12.6148 2.06807 11.3145 2.91211C11.383 2.41025 11.497 1.9312 11.5655 1.42934C13.9151 0.699368 17.0859 0.881863 17.2684 3.41396C17.3368 4.41768 17.0403 5.39858 16.8578 6.35668C16.6753 7.29196 16.4928 8.20443 16.3559 9.20814ZM11.383 7.13228C11.4286 7.79382 12.1586 8.1588 12.7517 8.1588C14.3713 8.18162 15.1469 6.76729 15.3978 5.37577C13.5729 5.28452 11.2689 5.51264 11.383 7.13228Z" fill="#030000"/>
<path fill-rule="evenodd" clip-rule="evenodd" d="M19.8689 1.22412C20.2111 3.34561 20.6217 5.39867 20.9411 7.56578C22.1501 5.48991 23.2679 3.3228 24.4541 1.22412C25.0016 1.22412 25.5491 1.22412 26.1193 1.22412C24.6594 3.87028 22.9485 6.76737 21.3061 9.5504C20.8042 10.4172 20.3024 11.5806 19.5724 12.1509C18.9337 12.6528 17.7018 12.7669 16.6753 12.5615C16.6981 12.1053 16.8578 11.7631 16.8806 11.3297C17.0859 11.3069 17.3368 11.4438 17.5878 11.4438C18.7055 11.4438 19.3215 10.4172 19.7321 9.61884C19.253 6.85862 18.7283 4.12121 18.2493 1.33818C18.2037 1.29256 18.2265 1.26974 18.2493 1.22412C18.7968 1.22412 19.3443 1.22412 19.8689 1.22412Z" fill="#030000"/>
<path fill-rule="evenodd" clip-rule="evenodd" d="M26.7809 13.8845C26.4387 15.8235 26.0053 17.6484 25.6631 19.5874C24.5909 19.5874 23.5188 19.5874 22.4238 19.5874C22.9257 17.215 23.3591 14.8654 23.8382 12.5158C24.3172 10.189 24.8875 7.8622 25.1612 5.39853C26.0281 5.33009 27.1915 5.33009 28.0583 5.39853C28.0355 5.94601 27.8986 6.40225 27.853 6.92691C28.6971 6.08288 29.6095 4.96511 31.5485 5.1476C33.3963 5.33009 34.4228 6.88129 34.5597 8.8431C34.8106 12.2192 33.1682 15.5269 30.2026 15.7551C28.3549 15.8919 27.488 15.0479 26.7809 13.8845ZM28.0811 8.8431C27.3283 9.91525 27.0774 11.9683 28.0355 12.7667C28.6286 13.2686 29.7236 13.0176 30.2254 12.607C30.8642 12.0824 31.3204 11.0786 31.2976 9.824C31.2748 8.68342 30.7729 7.72532 29.5639 7.88501C28.8567 7.97625 28.4233 8.34124 28.0811 8.8431Z" fill="#009651"/>
<path fill-rule="evenodd" clip-rule="evenodd" d="M43.4336 15.5498C42.5896 15.527 41.6315 15.5954 40.8559 15.5042C40.9471 15.0479 40.9471 14.4776 41.0156 14.0214C40.7646 14.2723 40.5821 14.6373 40.2628 14.9339C39.2134 15.892 36.8638 16.0973 35.7004 15.1392C34.4458 14.0898 34.6511 11.5806 35.7004 10.5084C36.9094 9.25376 39.1906 8.93439 41.5402 9.18532C41.7683 8.22723 41.1296 7.63412 40.3312 7.52007C39.1678 7.36038 37.6166 7.86224 36.9323 8.27285C37.0691 7.45163 37.1148 6.56197 37.2744 5.74075C38.0957 5.4442 38.8713 5.21608 39.8522 5.17046C42.5668 4.98796 44.4373 5.90043 44.6198 8.22723C44.7111 9.45906 44.3461 10.7365 44.0723 11.9455C43.8214 13.1317 43.6389 14.3408 43.4336 15.5498ZM40.1715 10.9874C39.1906 11.0103 38.1185 11.3296 37.8903 12.0596C37.7079 12.6983 38.1641 13.2914 38.6431 13.3827C40.1487 13.702 41.1752 12.2193 41.2893 11.0331C40.9471 10.9646 40.4453 10.9874 40.1715 10.9874Z" fill="#009651"/>
<path fill-rule="evenodd" clip-rule="evenodd" d="M53.3794 5.74079C53.2197 6.56201 52.9232 7.24637 52.7635 8.06759C51.9651 7.79385 51.007 7.38324 49.7523 7.52011C49.2505 7.58854 48.7486 7.83947 48.7486 8.34133C48.7714 8.95724 49.7067 9.18536 50.277 9.41348C51.0754 9.75566 52.0335 10.2119 52.4213 10.8962C53.0829 12.0825 52.4213 13.8161 51.7142 14.5461C51.121 15.162 50.0033 15.6639 48.8627 15.7551C47.3799 15.8692 45.8287 15.5955 44.5513 15.2533C44.7338 14.4092 44.9391 13.6336 45.1672 12.8581C46.0112 13.2002 46.9693 13.5196 48.2696 13.4055C48.8855 13.3371 49.5699 13.1318 49.4786 12.4018C49.4102 11.8087 48.5205 11.6034 47.859 11.3297C46.6271 10.8278 45.7147 10.1891 45.7147 8.52382C45.7147 5.10206 50.4595 4.53177 53.3794 5.74079Z" fill="#009651"/>
<path fill-rule="evenodd" clip-rule="evenodd" d="M61.4547 5.74072C61.2722 6.53913 61.0213 7.29192 60.7932 8.06752C60.0404 7.77096 59.0595 7.38317 57.8048 7.52004C57.303 7.56566 56.8011 7.81659 56.8011 8.34126C56.8239 8.97999 57.9645 9.32216 58.4892 9.55028C59.5613 10.0065 60.5879 10.5084 60.7247 11.7402C60.8616 12.9492 60.3597 13.9301 59.6526 14.5917C58.991 15.2304 58.0101 15.6638 56.9152 15.7551C55.4096 15.8691 53.9497 15.5954 52.6038 15.2532C52.7406 14.3864 53.0144 13.6792 53.1741 12.858C53.79 13.0405 54.3831 13.337 55.113 13.4055C56.1396 13.4967 57.5311 13.4283 57.5083 12.5386C57.4855 11.5805 55.5009 11.3752 54.7253 10.7593C53.8812 10.0978 53.3565 8.47813 54.0181 7.15505C55.1131 5.10199 58.877 4.64576 61.4547 5.74072Z" fill="#009651"/>
<path d="M62.6638 6.79006H62.2532L62.276 6.63037H63.2797L63.2569 6.79006H62.8463L62.6182 8.0447H62.4357L62.6638 6.79006Z" fill="#009651"/>
<path d="M64.3519 8.0447L64.4432 7.29191C64.466 7.15504 64.4888 6.94974 64.5116 6.81287C64.4432 6.94974 64.3748 7.13223 64.2835 7.2691L63.8729 8.0447H63.736L63.622 7.29191C63.5992 7.13223 63.5764 6.97255 63.5764 6.81287C63.5535 6.94974 63.5079 7.15504 63.4623 7.29191L63.2798 8.0447H63.1201L63.4851 6.63037H63.7132L63.8273 7.42878C63.8501 7.54284 63.8501 7.67971 63.8501 7.79377C63.8957 7.67971 63.9641 7.56565 64.0098 7.45159L64.4432 6.63037H64.6713L64.4888 8.0447H64.3519Z" fill="#009651"/>
<path d="M114.38 4.00549H111.727C110.925 4.00549 110.308 4.25228 109.938 5.05432L104.879 16.5914H108.457C108.457 16.5914 109.074 15.049 109.198 14.6788C109.568 14.6788 113.085 14.6788 113.578 14.6788C113.702 15.1107 114.01 16.5297 114.01 16.5297H117.218L114.38 4.00549ZM110.185 12.0876C110.493 11.3473 111.542 8.57096 111.542 8.57096C111.542 8.63266 111.851 7.83062 111.974 7.39875L112.221 8.50927C112.221 8.50927 112.9 11.5323 113.023 12.1493H110.185V12.0876Z" fill="#3362AB"/>
<path d="M105.126 12.4578C105.126 15.049 102.782 16.7765 99.1415 16.7765C97.5991 16.7765 96.1184 16.468 95.3164 16.0978L95.81 13.2599L96.2418 13.4449C97.3524 13.9385 98.0927 14.1236 99.45 14.1236C100.437 14.1236 101.486 13.7534 101.486 12.8897C101.486 12.3344 101.054 11.9642 99.6968 11.3473C98.4012 10.7303 96.6737 9.74321 96.6737 7.95404C96.6737 5.48621 99.0798 3.82043 102.473 3.82043C103.769 3.82043 104.879 4.06722 105.558 4.37569L105.064 7.0903L104.818 6.84352C104.201 6.59673 103.399 6.34995 102.226 6.34995C100.931 6.41165 100.314 6.96691 100.314 7.46047C100.314 8.01573 101.054 8.4476 102.226 9.00286C104.201 9.92829 105.126 10.9771 105.126 12.4578Z" fill="#3362AB"/>
<path d="M75.0186 4.12911L75.0803 3.88232H80.3861C81.1264 3.88232 81.6817 4.12911 81.8668 4.93115L83.039 10.4837C81.8668 7.52236 79.1522 5.11623 75.0186 4.12911Z" fill="#F9B50B"/>
<path d="M90.5042 4.00554L85.1367 16.5297H81.4966L78.4119 6.0415C80.6329 7.46049 82.4838 9.68153 83.1624 11.2239L83.5326 12.5195L86.8642 3.94385H90.5042V4.00554Z" fill="#3362AB"/>
<path d="M91.9233 3.94385H95.3165L93.1572 16.5297H89.7639L91.9233 3.94385Z" fill="#3362AB"/>
<path d="M142.482 12.7972C142.804 12.9353 142.943 13.3957 142.943 13.6259C142.989 13.9942 142.897 14.1783 142.758 14.1783C142.62 14.1783 142.436 14.0402 142.252 13.7179C142.068 13.3957 141.976 13.0734 142.068 12.8893C142.206 12.7972 142.344 12.7511 142.482 12.7972Z" fill="#F28A1A"/>
<path d="M140.595 14.2242C140.779 14.2242 141.009 14.3163 141.239 14.5005C141.607 14.8227 141.746 15.1911 141.561 15.4673C141.469 15.6054 141.239 15.6975 141.055 15.6975C140.825 15.6975 140.595 15.6054 140.457 15.4673C140.088 15.145 139.996 14.6846 140.226 14.4084C140.272 14.3163 140.41 14.2242 140.595 14.2242Z" fill="#F28A1A"/>
<path d="M136.221 17.8613C131.433 17.8613 127.566 13.9941 127.566 9.25216C127.566 4.51019 131.433 0.596924 136.221 0.596924C141.009 0.596924 144.876 4.46416 144.876 9.25216C144.876 10.8635 144.416 12.3828 143.679 13.6718C143.633 13.7179 143.587 13.7179 143.587 13.6258C143.265 11.508 141.976 10.3571 140.134 9.98877C139.95 9.94273 139.95 9.85066 140.18 9.85066C140.779 9.80462 141.561 9.80462 142.022 9.8967C142.068 9.6665 142.068 9.43631 142.068 9.25216C142.068 6.12154 139.49 3.54339 136.359 3.54339C133.228 3.54339 130.65 6.12154 130.65 9.25216C130.65 12.3828 133.228 14.9609 136.359 14.9609H136.635C136.543 14.4545 136.497 13.9481 136.543 13.3956C136.543 13.0273 136.635 12.9813 136.773 13.2575C137.556 14.6387 138.707 15.8357 140.917 16.3421C142.712 16.7564 144.508 17.2168 146.487 19.6569C146.672 19.887 146.395 20.1172 146.211 19.9331C144.232 18.1836 142.436 17.5851 140.779 17.5851C138.707 17.6312 137.464 17.8613 136.221 17.8613Z" fill="#F28A1A"/>
<path d="M186.165 10.2984C186.165 15.1166 182.248 19.0793 177.384 19.0793C172.566 19.0793 168.604 15.1166 168.604 10.2984C168.604 5.48022 172.521 1.51758 177.339 1.51758C182.248 1.51758 186.165 5.48022 186.165 10.2984Z" fill="#F9B50B"/>
<path d="M174.412 10.3435C174.412 9.71304 174.322 9.08262 174.232 8.49723H168.829C168.874 8.18202 168.964 7.91184 169.054 7.5516H173.872C173.782 7.23639 173.647 6.92118 173.512 6.60597H169.414C169.549 6.29076 169.729 6.02058 169.909 5.66034H173.016C172.836 5.34513 172.611 5.02992 172.341 4.71471H170.63C170.9 4.3995 171.17 4.12932 171.531 3.81411C169.999 2.37315 167.928 1.51758 165.632 1.51758C160.858 1.65267 156.896 5.48022 156.896 10.2984C156.896 15.1166 160.813 19.0793 165.677 19.0793C167.973 19.0793 169.999 18.1787 171.576 16.7828C171.891 16.5126 172.161 16.1974 172.476 15.8371H170.675C170.45 15.5669 170.225 15.2517 170.045 14.9365H173.107C173.287 14.6663 173.467 14.3511 173.602 13.9909H169.504C169.369 13.7207 169.234 13.4055 169.144 13.0453H173.962C174.232 12.2347 174.412 11.3341 174.412 10.3435Z" fill="#C8191C"/>
<path d="M168.784 12.5499L168.919 11.7394C168.874 11.7394 168.784 11.7844 168.694 11.7844C168.378 11.7844 168.333 11.6043 168.378 11.5143L168.649 9.89317H169.144L169.279 8.99257H168.829L168.919 8.45221H167.973C167.973 8.45221 167.433 11.5143 167.433 11.8745C167.433 12.4149 167.748 12.685 168.198 12.685C168.469 12.685 168.694 12.595 168.784 12.5499Z" fill="white"/>
<path d="M169.099 11.0639C169.099 12.3697 169.999 12.6849 170.72 12.6849C171.395 12.6849 171.711 12.5498 171.711 12.5498L171.891 11.6492C171.891 11.6492 171.395 11.8744 170.9 11.8744C169.864 11.8744 170.045 11.1089 170.045 11.1089H171.936C171.936 11.1089 172.071 10.5235 172.071 10.2533C172.071 9.66793 171.756 8.90242 170.72 8.90242C169.819 8.85739 169.099 9.89308 169.099 11.0639ZM170.72 9.71296C171.215 9.71296 171.125 10.2983 171.125 10.3434H170.09C170.135 10.2983 170.225 9.71296 170.72 9.71296Z" fill="white"/>
<path d="M176.619 12.55L176.799 11.5143C176.799 11.5143 176.349 11.7394 175.989 11.7394C175.358 11.7394 175.043 11.2441 175.043 10.6587C175.043 9.53297 175.583 8.94758 176.259 8.94758C176.709 8.94758 177.114 9.21776 177.114 9.21776L177.249 8.2271C177.249 8.2271 176.709 8.00195 176.169 8.00195C175.088 8.00195 174.052 8.94758 174.052 10.7038C174.052 11.8745 174.593 12.64 175.718 12.64C176.124 12.6851 176.619 12.55 176.619 12.55Z" fill="white"/>
<path d="M163.695 8.85742C163.065 8.85742 162.57 9.03754 162.57 9.03754L162.435 9.84808C162.435 9.84808 162.84 9.66796 163.47 9.66796C163.785 9.66796 164.056 9.71299 164.056 9.98317C164.056 10.1633 164.011 10.2083 164.011 10.2083H163.605C162.795 10.2083 161.939 10.5235 161.939 11.6043C161.939 12.4598 162.48 12.6399 162.84 12.6399C163.47 12.6399 163.785 12.2347 163.83 12.2347L163.785 12.5949H164.551L164.911 10.0282C164.911 8.90245 164.011 8.85742 163.695 8.85742ZM163.875 10.9288C163.875 11.0639 163.785 11.8294 163.245 11.8294C162.975 11.8294 162.885 11.6043 162.885 11.4692C162.885 11.244 163.02 10.9288 163.74 10.9288C163.83 10.9288 163.875 10.9288 163.875 10.9288Z" fill="white"/>
<path d="M165.812 12.6399C166.037 12.6399 167.208 12.685 167.208 11.4241C167.208 10.2533 166.082 10.4785 166.082 10.0282C166.082 9.80304 166.262 9.71298 166.577 9.71298C166.712 9.71298 167.208 9.75801 167.208 9.75801L167.343 8.90244C167.343 8.90244 167.028 8.81238 166.442 8.81238C165.767 8.81238 165.046 9.08256 165.046 10.0282C165.046 11.1089 166.217 11.0188 166.217 11.4241C166.217 11.6943 165.902 11.7393 165.677 11.7393C165.271 11.7393 164.821 11.6042 164.821 11.6042L164.686 12.4598C164.776 12.5499 165.046 12.6399 165.812 12.6399Z" fill="white"/>
<path d="M184.364 8.13702L184.184 9.39786C184.184 9.39786 183.824 8.94756 183.283 8.94756C182.428 8.94756 181.707 9.98325 181.707 11.1991C181.707 11.9646 182.068 12.7301 182.878 12.7301C183.418 12.7301 183.779 12.3698 183.779 12.3698L183.734 12.6851H184.679L185.355 8.22708L184.364 8.13702ZM183.914 10.5686C183.914 11.064 183.689 11.7394 183.148 11.7394C182.833 11.7394 182.653 11.4692 182.653 10.9739C182.653 10.2084 182.968 9.7581 183.418 9.7581C183.734 9.80313 183.914 10.0283 183.914 10.5686Z" fill="white"/>
<path d="M158.607 12.595L159.147 9.26277L159.237 12.595H159.868L161.084 9.26277L160.588 12.595H161.579L162.344 8.13702H160.813L159.868 10.8839L159.823 8.13702H158.472L157.706 12.595H158.607Z" fill="white"/>
<path d="M173.016 12.5949C173.287 11.0639 173.332 9.80302 174.007 10.0282C174.097 9.44278 174.232 9.1726 174.322 8.94745H174.142C173.737 8.94745 173.377 9.48781 173.377 9.48781L173.467 8.99248H172.566L171.981 12.5949H173.016V12.5949Z" fill="white"/>
<path d="M178.78 8.85742C178.15 8.85742 177.655 9.03754 177.655 9.03754L177.519 9.84808C177.519 9.84808 177.925 9.66796 178.555 9.66796C178.87 9.66796 179.141 9.71299 179.141 9.98317C179.141 10.1633 179.096 10.2083 179.096 10.2083H178.69C177.88 10.2083 177.024 10.5235 177.024 11.6043C177.024 12.4598 177.565 12.6399 177.925 12.6399C178.555 12.6399 178.87 12.2347 178.915 12.2347L178.87 12.5949H179.726L180.086 10.0282C180.086 8.90245 179.096 8.85742 178.78 8.85742ZM179.005 10.9288C179.005 11.0639 178.915 11.8294 178.375 11.8294C178.105 11.8294 178.015 11.6043 178.015 11.4692C178.015 11.244 178.15 10.9288 178.87 10.9288C178.96 10.9288 178.96 10.9288 179.005 10.9288Z" fill="white"/>
<path d="M180.807 12.5949C181.077 11.0639 181.122 9.80302 181.797 10.0282C181.887 9.44278 182.022 9.1726 182.113 8.94745H181.932C181.527 8.94745 181.167 9.48781 181.167 9.48781L181.257 8.99248H180.356L179.771 12.5949H180.807V12.5949Z" fill="white"/>
<path d="M214.905 10.1229V14.6184H213.469V3.51643H217.278C217.733 3.507 218.185 3.58708 218.608 3.75204C219.031 3.917 219.418 4.16358 219.744 4.47755C220.075 4.77246 220.337 5.13413 220.515 5.53826C220.693 5.94239 220.781 6.37962 220.775 6.82055C220.784 7.26384 220.697 7.70392 220.519 8.11062C220.341 8.51733 220.077 8.88104 219.744 9.17683C219.078 9.80754 218.256 10.1226 217.278 10.122H214.905V10.1229ZM214.905 4.88326V8.75873H217.314C217.578 8.7665 217.841 8.71946 218.085 8.62062C218.33 8.52178 218.551 8.37331 218.735 8.18471C218.917 8.00838 219.062 7.79747 219.162 7.56445C219.261 7.33143 219.312 7.08104 219.312 6.82808C219.312 6.57512 219.261 6.32472 219.162 6.0917C219.062 5.85869 218.917 5.64777 218.735 5.47144C218.553 5.27887 218.333 5.12676 218.088 5.02521C217.843 4.92365 217.579 4.87496 217.314 4.88237H214.905V4.88326Z" fill="#5F6368"/>
<path d="M224.084 6.77441C225.146 6.77441 225.983 7.05611 226.598 7.61949C227.212 8.18287 227.519 8.95531 227.518 9.9368V14.6184H226.145V13.5642H226.082C225.487 14.4323 224.697 14.8664 223.709 14.8664C222.867 14.8664 222.162 14.6184 221.595 14.1223C221.322 13.8946 221.105 13.6095 220.957 13.2877C220.81 12.9659 220.737 12.6155 220.744 12.2621C220.744 11.4761 221.043 10.851 221.641 10.3868C222.239 9.92262 223.038 9.68995 224.037 9.68877C224.89 9.68877 225.592 9.84379 226.144 10.1538V9.82784C226.145 9.58691 226.093 9.34864 225.99 9.13031C225.888 8.91198 225.738 8.71906 225.551 8.56555C225.171 8.22528 224.676 8.03962 224.164 8.04557C223.362 8.04557 222.727 8.38159 222.26 9.05363L220.995 8.26259C221.691 7.27047 222.721 6.77441 224.084 6.77441ZM222.226 12.2931C222.225 12.4746 222.268 12.6537 222.351 12.8155C222.434 12.9773 222.554 13.1171 222.702 13.2232C223.02 13.4713 223.414 13.6027 223.818 13.5952C224.424 13.5942 225.005 13.3547 225.434 12.9291C225.909 12.4844 226.147 11.9627 226.147 11.3639C225.699 11.0095 225.075 10.8324 224.274 10.8324C223.691 10.8324 223.204 10.972 222.815 11.2514C222.421 11.5348 222.226 11.8794 222.226 12.2931V12.2931Z" fill="#5F6368"/>
<path d="M235.403 7.02246L230.608 17.9668H229.126L230.905 14.1374L227.752 7.02246H229.313L231.592 12.4791H231.623L233.84 7.02246H235.403Z" fill="#5F6368"/>
<path d="M209.102 9.15372C209.103 8.71909 209.066 8.28522 208.991 7.85687H202.935V10.3133H206.404C206.333 10.7056 206.183 11.0796 205.962 11.4127C205.742 11.7458 205.456 12.0311 205.121 12.2514V13.8459H207.191C208.404 12.736 209.102 11.0946 209.102 9.15372Z" fill="#4285F4"/>
<path d="M202.935 15.3864C204.668 15.3864 206.127 14.8212 207.191 13.8468L205.121 12.2523C204.545 12.6403 203.803 12.8618 202.935 12.8618C201.26 12.8618 199.838 11.7403 199.329 10.2291H197.197V11.8723C197.731 12.9286 198.551 13.8166 199.564 14.4372C200.577 15.0577 201.744 15.3863 202.935 15.3864V15.3864Z" fill="#34A853"/>
<path d="M199.329 10.2291C199.061 9.43717 199.061 8.57962 199.329 7.78773V6.14453H197.197C196.747 7.03315 196.513 8.01388 196.513 9.00839C196.513 10.0029 196.747 10.9836 197.197 11.8723L199.329 10.2291Z" fill="#FBBC04"/>
<path d="M202.935 5.15514C203.851 5.14028 204.736 5.48393 205.398 6.11183L207.231 4.29146C206.069 3.20728 204.529 2.61205 202.935 2.63055C201.744 2.6306 200.577 2.95923 199.564 3.57976C198.551 4.20028 197.731 5.08828 197.197 6.1446L199.329 7.7878C199.838 6.27659 201.26 5.15514 202.935 5.15514Z" fill="#EA4335"/>
<path d="M279.658 4.82373H272.382C272.806 7.22552 275.137 9.48604 277.68 9.48604H283.473C283.544 9.27412 283.544 8.92091 283.544 8.70899C283.544 6.58976 281.778 4.82373 279.658 4.82373Z" fill="url(#paint0_linear_3_172)"/>
<path d="M273.018 9.90997V15.7732H276.55V12.665H279.658C281.354 12.665 282.837 11.4641 283.332 9.90997H273.018Z" fill="#4FAD50"/>
<path d="M260.585 4.82373V15.7025H263.694C263.694 15.7025 264.471 15.7024 264.895 14.9254C267.014 10.7576 267.65 9.48604 267.65 9.48604H268.073V15.7025H271.605V4.82373H268.497C268.497 4.82373 267.72 4.89438 267.296 5.60079C265.53 9.20348 264.541 11.0401 264.541 11.0401H264.117V4.82373H260.585Z" fill="#4FAD50"/>
<path d="M245.751 15.7731V4.89441H249.283C249.283 4.89441 250.272 4.89441 250.837 6.44851C252.25 10.5457 252.391 11.1108 252.391 11.1108C252.391 11.1108 252.674 10.1218 253.945 6.44851C254.51 4.89441 255.499 4.89441 255.499 4.89441H259.031V15.7731H255.499V9.90992H255.075L253.097 15.7731H251.543L249.565 9.90992H249.142V15.7731H245.751Z" fill="#4FAD50"/>
<defs>
<linearGradient id="paint0_linear_3_172" x1="272.37" y1="7.1883" x2="283.519" y2="7.1883" gradientUnits="userSpaceOnUse">
<stop stop-color="#27B1E6"/>
<stop offset="1" stop-color="#148ACA"/>
</linearGradient>
</defs>
</svg>
