<svg width="1170" height="316" viewBox="0 0 1170 316" fill="none" xmlns="http://www.w3.org/2000/svg">
<rect width="1170" height="316" rx="40" fill="url(#paint0_linear_621_1917)"/>
<rect x="42" y="42" width="1086" height="236" rx="40" fill="white"/>
<path d="M79.539 310.05C80.6995 308.902 82.0332 307.932 83.5119 307.234C89.679 304.321 97.0502 306.446 103.102 309.596C109.15 312.753 114.821 316.95 121.491 318.402C124.591 319.076 129.01 318.056 128.925 314.888C128.888 313.411 127.788 312.211 126.733 311.178C116.141 300.835 103.126 294.044 90.9162 285.889C87.6522 283.707 83.9549 280.544 84.7809 276.703C85.6645 272.583 91.2188 271.387 95.228 272.696C99.2355 274 102.659 276.853 106.78 277.743C107.852 277.972 109.006 278.061 110.026 277.65C111.959 276.871 112.837 274.49 112.557 272.424C110.822 259.719 93.3902 253.981 86.085 245.14C79.8467 237.6 77.9605 227.426 76.9637 217.69C76.1859 210.088 75.9366 201.916 79.8559 195.355C80.7434 193.876 81.9426 192.427 83.6097 191.989C89.9601 190.309 94.0286 205.001 98.6442 208.164C102.834 211.044 108.146 212.456 111.399 216.358C115.508 221.288 115.031 228.471 117.1 234.546C120.416 244.259 129.893 244.322 134.468 251.097C133.485 245.38 132.424 239.591 131.395 233.847C131.066 232.019 130.791 229.945 131.908 228.458C134.339 225.214 139.587 228.518 141.158 232.255C143.229 237.173 143.206 242.689 144.253 247.927C145.299 253.165 147.949 258.695 152.969 260.501C158.502 262.495 164.393 259.266 169.603 256.529C174.813 253.793 181.529 251.553 186.222 255.105C188.066 256.496 189.252 258.592 190.097 260.745C197.28 278.94 183.009 301.071 191.919 318.483C199.907 334.099 212.421 341.664 197.892 358.559C191.936 365.484 184.693 369.642 175.321 369.279C168.15 368.997 161.262 366.579 154.428 364.411C140.306 359.937 125.306 359.701 110.779 356.98C100.634 355.08 90.4203 351.513 83.0183 344.316C75.618 337.125 71.6866 325.674 75.5654 316.111C76.4781 313.859 77.8204 311.757 79.539 310.05Z" fill="#10986F"/>
<path d="M188.264 367.771C187.777 367.901 187.238 367.714 186.952 367.262L102.108 236.026C101.749 235.474 101.908 234.731 102.46 234.373C103.024 234.011 103.754 234.173 104.113 234.725L188.958 365.961C189.316 366.513 189.157 367.256 188.605 367.614C188.494 367.69 188.381 367.74 188.264 367.771Z" fill="white"/>
<path d="M139.478 292.321C139.324 292.362 139.155 292.374 138.989 292.346L115.093 288.628C114.438 288.525 113.992 287.917 114.095 287.262C114.198 286.607 114.812 286.159 115.46 286.264L139.357 289.982C140.012 290.085 140.458 290.692 140.355 291.347C140.279 291.83 139.928 292.201 139.478 292.321Z" fill="white"/>
<path d="M998.752 63.8002C997.917 62.7445 997.245 61.5635 996.809 60.2885C994.99 54.9711 997.406 49.1296 1000.54 44.4621C1003.68 39.7991 1007.64 35.5401 1009.44 30.2111C1010.27 27.7346 1009.84 24.0224 1007.24 23.8013C1006.03 23.6961 1004.95 24.4864 1004 25.2557C994.561 32.9817 987.807 43.0171 980.009 52.2676C977.923 54.7404 974.993 57.4781 971.924 56.4495C968.631 55.3481 968.16 50.6899 969.601 47.5268C971.035 44.3645 973.686 41.823 974.793 38.5291C975.079 37.6723 975.257 36.7359 975.015 35.8627C974.554 34.2085 972.684 33.271 970.967 33.3108C960.404 33.5666 954.106 47.3155 946.196 52.4871C939.449 56.9042 930.945 57.5159 922.88 57.4393C916.584 57.3792 909.869 56.834 904.855 53.0227C903.725 52.1603 902.648 51.0453 902.443 49.64C901.65 44.2855 914.054 42.3011 917.068 38.8114C919.81 35.6443 921.453 31.4241 924.948 29.1176C929.362 26.2049 935.2 27.2541 940.365 26.1171C948.623 24.2923 949.544 16.5368 955.511 13.4123C950.739 13.6924 945.902 14.0303 941.103 14.3464C939.576 14.448 937.852 14.4833 936.737 13.4326C934.303 11.1437 937.491 7.1491 940.695 6.20533C944.912 4.9605 949.427 5.48488 953.812 5.10853C958.198 4.73218 962.969 3.06903 964.909 -0.876483C967.049 -5.22442 964.945 -10.3449 963.182 -14.8622C961.419 -19.3796 960.2 -25.0851 963.539 -28.6024C964.848 -29.985 966.672 -30.7643 968.513 -31.2587C984.073 -35.4721 1000.89 -21.7565 1015.96 -27.4558C1029.48 -32.5654 1036.83 -42.1199 1049.33 -28.672C1054.45 -23.1593 1057.19 -16.8471 1056.04 -9.2053C1055.15 -3.35904 1052.54 2.05981 1050.14 7.45782C1045.18 18.612 1043.61 30.8744 1040.05 42.5209C1037.56 50.655 1033.7 58.6917 1027.13 64.0933C1020.56 69.4941 1010.83 71.6634 1003.35 67.61C1001.59 66.6561 999.992 65.3641 998.752 63.8002Z" fill="#10986F"/>
<path d="M1055.99 -19.9429C1056.05 -19.532 1055.85 -19.108 1055.45 -18.9154L940.202 38.5303C939.717 38.7733 939.123 38.5751 938.88 38.0903C938.636 37.5951 938.835 37.0119 939.32 36.7689L1054.57 -20.6768C1055.06 -20.9198 1055.65 -20.7216 1055.89 -20.2368C1055.95 -20.1383 1055.98 -20.0418 1055.99 -19.9429Z" fill="white"/>
<path d="M1033 -8.48065C1033.01 -8.38702 1033.01 -8.29624 1033 -8.19869L1026.13 41.0731C1026.05 41.6107 1025.55 41.9893 1025.01 41.9157C1024.48 41.837 1024.1 41.3405 1024.17 40.8028L1031.04 -8.46899C1031.12 -9.00664 1031.62 -9.38515 1032.15 -9.3116C1032.6 -9.24558 1032.93 -8.90202 1033 -8.48065Z" fill="white"/>
<path d="M989.729 13.0895C989.749 13.2195 989.743 13.3587 989.705 13.4921L984.469 32.7201C984.324 33.2471 983.786 33.5566 983.259 33.4123C982.732 33.268 982.421 32.7242 982.566 32.2024L987.802 12.9744C987.947 12.4475 988.485 12.1379 989.012 12.2822C989.401 12.3888 989.672 12.7097 989.729 13.0895Z" fill="white"/>
<path d="M1026.43 288.721C1028.01 289.298 1029.5 290.115 1030.8 291.187C1036.22 295.655 1037.47 303.455 1037.19 310.476C1036.9 317.496 1035.48 324.621 1037.06 331.472C1037.79 334.656 1040.68 338.326 1043.59 336.857C1044.95 336.174 1045.59 334.623 1046.09 333.187C1051.08 318.78 1051.69 303.674 1053.93 288.721C1054.54 284.723 1055.86 279.89 1059.8 278.975C1064.03 277.99 1067.58 282.64 1068.12 286.95C1068.66 291.256 1067.51 295.697 1068.48 299.928C1068.74 301.027 1069.16 302.141 1069.99 302.911C1071.57 304.37 1074.17 304.143 1075.97 302.976C1087.05 295.786 1084.75 277.027 1089.78 266.342C1094.07 257.221 1102.72 251.001 1111.36 245.8C1118.1 241.74 1125.6 237.923 1133.43 238.696C1135.2 238.874 1137.08 239.355 1138.22 240.716C1142.57 245.896 1130.66 256.133 1129.74 261.821C1128.9 266.988 1129.91 272.556 1127.7 277.3C1124.91 283.291 1118.01 285.998 1113.26 290.591C1105.66 297.942 1109.76 306.8 1105.46 314.034C1110.35 310.61 1115.28 307.082 1120.18 303.603C1121.74 302.495 1123.55 301.328 1125.43 301.716C1129.52 302.558 1128.74 308.898 1125.95 312.001C1122.27 316.088 1117.13 318.487 1112.7 321.76C1108.28 325.032 1104.29 329.928 1104.81 335.398C1105.38 341.427 1110.98 345.5 1115.81 349.153C1120.65 352.806 1125.68 358.081 1124.43 364.012C1123.94 366.341 1122.51 368.365 1120.88 370.097C1107.07 384.772 1080.19 381.186 1067.88 397.126C1056.83 411.42 1055.28 426.399 1033.16 420.273C1024.1 417.763 1017.04 412.839 1013.27 403.948C1010.39 397.143 1009.62 389.664 1008.64 382.345C1006.61 367.225 1000.25 353.146 996.413 338.417C993.732 328.131 992.575 317.05 996.032 306.996C999.485 296.947 1008.43 288.259 1019.04 287.678C1021.54 287.54 1024.09 287.869 1026.43 288.721Z" fill="#10986F"/>
<path d="M1020.35 415.345C1020.02 414.948 1019.96 414.365 1020.25 413.9L1105.3 277.271C1105.66 276.695 1106.42 276.517 1107 276.874C1107.58 277.241 1107.75 277.993 1107.39 278.569L1022.34 415.197C1021.99 415.773 1021.23 415.951 1020.65 415.594C1020.53 415.524 1020.43 415.441 1020.35 415.345Z" fill="white"/>
<path d="M1069.25 336.788C1069.14 336.663 1069.06 336.511 1069.01 336.344L1061.99 312.448C1061.8 311.793 1062.17 311.11 1062.82 310.919C1063.48 310.727 1064.17 311.103 1064.35 311.753L1071.37 335.649C1071.57 336.304 1071.19 336.987 1070.54 337.178C1070.06 337.319 1069.56 337.155 1069.25 336.788Z" fill="white"/>
<defs>
<linearGradient id="paint0_linear_621_1917" x1="625" y1="53" x2="534.5" y2="364.5" gradientUnits="userSpaceOnUse">
<stop stop-color="#15C993"/>
<stop offset="1" stop-color="#1AE1A6"/>
</linearGradient>
</defs>
</svg>
