<svg viewBox="0 0 1165 467" fill="none" xmlns="http://www.w3.org/2000/svg">
<path d="M226.694 339.244C187.492 339.244 154.906 326.135 128.938 299.917C103.219 273.948 90.3599 241.613 90.3599 202.91C90.3599 163.957 103.219 131.621 128.938 105.903C154.906 79.6847 187.492 66.5757 226.694 66.5757C250.415 66.5757 272.263 72.1939 292.239 83.4302C312.464 94.4168 328.195 109.399 339.432 128.375L294.861 154.219C288.369 142.483 279.13 133.369 267.145 126.877C255.159 120.135 241.676 116.765 226.694 116.765C201.225 116.765 180.625 124.755 164.894 140.735C149.413 156.966 141.672 177.69 141.672 202.91C141.672 227.879 149.413 248.479 164.894 264.709C180.625 280.69 201.225 288.68 226.694 288.68C241.676 288.68 255.159 285.434 267.145 278.942C279.38 272.2 288.618 263.086 294.861 251.6L339.432 277.444C328.195 296.421 312.464 311.527 292.239 322.764C272.263 333.75 250.415 339.244 226.694 339.244ZM589.229 299.917C562.761 326.135 530.55 339.244 492.597 339.244C454.643 339.244 422.432 326.135 395.964 299.917C369.746 273.199 356.637 240.863 356.637 202.91C356.637 164.706 369.746 132.495 395.964 106.277C422.432 79.8096 454.643 66.5757 492.597 66.5757C530.55 66.5757 562.761 79.8096 589.229 106.277C615.697 132.495 628.931 164.706 628.931 202.91C628.931 241.113 615.697 273.449 589.229 299.917ZM432.295 264.709C448.276 280.69 468.376 288.68 492.597 288.68C516.817 288.68 536.918 280.69 552.898 264.709C569.128 248.479 577.244 227.879 577.244 202.91C577.244 177.94 569.128 157.34 552.898 141.11C536.668 124.88 516.567 116.765 492.597 116.765C468.626 116.765 448.525 124.88 432.295 141.11C416.065 157.34 407.95 177.94 407.95 202.91C407.95 227.879 416.065 248.479 432.295 264.709ZM761.186 339.244C731.971 339.244 708 331.004 689.273 314.524C670.546 298.044 661.182 275.946 661.182 248.229V71.8193H712.495V244.109C712.495 258.092 716.49 269.079 724.48 277.069C732.72 284.81 744.955 288.68 761.186 288.68C777.416 288.68 789.526 284.81 797.516 277.069C805.756 269.079 809.876 258.092 809.876 244.109V71.8193H861.563V248.229C861.563 275.946 852.2 298.044 833.472 314.524C814.745 331.004 790.65 339.244 761.186 339.244ZM908.127 71.8193H1005.88C1030.85 71.8193 1052.08 80.309 1069.55 97.2883C1086.78 114.268 1095.4 135.117 1095.4 159.837C1095.4 184.557 1086.78 205.407 1069.55 222.386C1052.08 239.365 1030.85 247.855 1005.88 247.855H959.814V334H908.127V71.8193ZM959.814 199.539H1005.88C1016.87 199.539 1025.98 195.793 1033.22 188.302C1040.47 180.562 1044.09 171.073 1044.09 159.837C1044.09 148.351 1040.47 138.863 1033.22 131.372C1025.98 123.881 1016.87 120.135 1005.88 120.135H959.814V199.539Z" fill="#15C993"/>
<g filter="url(#filter0_d_74_196)">
<rect x="62" y="89.2148" width="327" height="85" rx="15" fill="white" shape-rendering="crispEdges"/>
<path d="M105.89 120.315H119.795V139.215H116.69V123.285H108.995V139.215H105.89V120.315ZM131.034 125.364C132.87 125.364 134.454 126.057 135.786 127.443C137.1 128.811 137.757 130.485 137.757 132.465C137.757 134.463 137.1 136.146 135.786 137.514C134.472 138.882 132.888 139.566 131.034 139.566C129 139.566 127.425 138.81 126.309 137.298V144.615H123.393V125.715H126.309V127.659C127.407 126.129 128.982 125.364 131.034 125.364ZM127.524 135.57C128.334 136.38 129.351 136.785 130.575 136.785C131.799 136.785 132.816 136.38 133.626 135.57C134.436 134.742 134.841 133.707 134.841 132.465C134.841 131.223 134.436 130.197 133.626 129.387C132.816 128.559 131.799 128.145 130.575 128.145C129.351 128.145 128.334 128.559 127.524 129.387C126.714 130.197 126.309 131.223 126.309 132.465C126.309 133.689 126.714 134.724 127.524 135.57ZM143.262 134.274L150.174 125.715H152.415V139.215H149.553V130.629L142.641 139.215H140.4V125.715H143.262V134.274ZM165.141 132.276C166.473 132.906 167.139 133.941 167.139 135.381C167.139 136.533 166.743 137.46 165.951 138.162C165.177 138.864 164.097 139.215 162.711 139.215H155.799V125.715H162.171C163.539 125.715 164.61 126.057 165.384 126.741C166.158 127.425 166.545 128.325 166.545 129.441C166.545 130.719 166.077 131.664 165.141 132.276ZM161.955 128.199H158.58V131.196H161.955C163.143 131.196 163.737 130.692 163.737 129.684C163.737 128.694 163.143 128.199 161.955 128.199ZM158.58 136.677H162.441C163.665 136.677 164.277 136.146 164.277 135.084C164.277 134.616 164.115 134.256 163.791 134.004C163.467 133.734 163.017 133.599 162.441 133.599H158.58V136.677ZM180.202 127.632V125.715H183.118V139.215H180.202V137.271C179.104 138.801 177.529 139.566 175.477 139.566C173.623 139.566 172.039 138.882 170.725 137.514C169.411 136.146 168.754 134.463 168.754 132.465C168.754 130.467 169.411 128.784 170.725 127.416C172.039 126.048 173.623 125.364 175.477 125.364C177.529 125.364 179.104 126.12 180.202 127.632ZM172.885 135.57C173.695 136.38 174.712 136.785 175.936 136.785C177.16 136.785 178.177 136.38 178.987 135.57C179.797 134.742 180.202 133.707 180.202 132.465C180.202 131.223 179.797 130.197 178.987 129.387C178.177 128.559 177.16 128.145 175.936 128.145C174.712 128.145 173.695 128.559 172.885 129.387C172.075 130.197 171.67 131.223 171.67 132.465C171.67 133.689 172.075 134.724 172.885 135.57ZM185.085 125.715H196.83V128.523H192.429V139.215H189.513V128.523H185.085V125.715ZM207.903 131.088V125.715H210.819V139.215H207.903V133.842H201.72V139.215H198.804V125.715H201.72V131.088H207.903ZM217.118 130.305H220.088C221.546 130.305 222.725 130.719 223.625 131.547C224.543 132.357 225.002 133.428 225.002 134.76C225.002 136.074 224.543 137.145 223.625 137.973C222.725 138.801 221.546 139.215 220.088 139.215H214.202V125.715H217.118V130.305ZM226.622 139.215V125.715H229.538V139.215H226.622ZM217.118 136.596H220.115C220.691 136.596 221.168 136.425 221.546 136.083C221.942 135.741 222.14 135.3 222.14 134.76C222.14 134.22 221.951 133.779 221.573 133.437C221.195 133.095 220.709 132.924 220.115 132.924H217.118V136.596ZM245.964 133.707H235.218C235.434 134.715 235.92 135.498 236.676 136.056C237.45 136.614 238.404 136.893 239.538 136.893C241.068 136.893 242.229 136.335 243.021 135.219L245.424 136.623C244.11 138.585 242.139 139.566 239.511 139.566C237.333 139.566 235.56 138.9 234.192 137.568C232.842 136.218 232.167 134.517 232.167 132.465C232.167 130.467 232.833 128.784 234.165 127.416C235.479 126.048 237.189 125.364 239.295 125.364C241.257 125.364 242.877 126.057 244.155 127.443C245.433 128.829 246.072 130.512 246.072 132.492C246.072 132.852 246.036 133.257 245.964 133.707ZM235.191 131.331H243.129C242.931 130.269 242.481 129.45 241.779 128.874C241.095 128.298 240.258 128.01 239.268 128.01C238.188 128.01 237.288 128.307 236.568 128.901C235.848 129.495 235.389 130.305 235.191 131.331ZM261.166 132.33L267.322 139.215H263.839L258.304 132.978V139.215H255.388V125.715H258.304V131.682L263.542 125.715H267.106L261.166 132.33ZM274.662 135.543L278.118 125.715H281.223L276.039 139.647C275.409 141.357 274.527 142.635 273.393 143.481C272.259 144.327 270.945 144.705 269.451 144.615V141.888C271.179 141.996 272.376 141.132 273.042 139.296L273.123 139.107L267.453 125.715H270.558L274.662 135.543ZM283.047 125.715H295.062V139.215H292.146V128.469H285.963V139.215H283.047V125.715ZM309.866 137.514C308.498 138.882 306.815 139.566 304.817 139.566C302.819 139.566 301.136 138.882 299.768 137.514C298.382 136.128 297.689 134.445 297.689 132.465C297.689 130.485 298.382 128.802 299.768 127.416C301.136 126.048 302.819 125.364 304.817 125.364C306.815 125.364 308.498 126.048 309.866 127.416C311.252 128.802 311.945 130.485 311.945 132.465C311.945 134.445 311.252 136.128 309.866 137.514ZM300.605 132.465C300.605 133.689 301.01 134.706 301.82 135.516C302.63 136.326 303.629 136.731 304.817 136.731C306.005 136.731 307.004 136.326 307.814 135.516C308.624 134.706 309.029 133.689 309.029 132.465C309.029 131.241 308.624 130.224 307.814 129.414C307.004 128.604 306.005 128.199 304.817 128.199C303.629 128.199 302.63 128.604 301.82 129.414C301.01 130.224 300.605 131.241 300.605 132.465ZM323.681 131.088V125.715H326.597V139.215H323.681V133.842H317.498V139.215H314.582V125.715H317.498V131.088H323.681ZM332.896 130.305H335.866C337.324 130.305 338.503 130.719 339.403 131.547C340.321 132.357 340.78 133.428 340.78 134.76C340.78 136.074 340.321 137.145 339.403 137.973C338.503 138.801 337.324 139.215 335.866 139.215H329.98V125.715H332.896V130.305ZM342.4 139.215V125.715H345.316V139.215H342.4ZM332.896 136.596H335.893C336.469 136.596 336.946 136.425 337.324 136.083C337.72 135.741 337.918 135.3 337.918 134.76C337.918 134.22 337.729 133.779 337.351 133.437C336.973 133.095 336.487 132.924 335.893 132.924H332.896V136.596Z" fill="#212043"/>
</g>
<g filter="url(#filter1_d_74_196)">
<rect x="304" y="271.215" width="260" height="85" rx="15" fill="white" shape-rendering="crispEdges"/>
<path d="M354.397 312.278L358.528 302.315H361.66L355.801 316.355C354.361 319.793 352.03 321.413 348.808 321.215V318.326C349.87 318.434 350.725 318.281 351.373 317.867C352.039 317.435 352.57 316.706 352.966 315.68L346.675 302.315H349.807L354.397 312.278ZM371.908 313.088V307.715H374.824V321.215H371.908V315.842H365.725V321.215H362.809V307.715H365.725V313.088H371.908ZM381.07 316.274L387.982 307.715H390.223V321.215H387.361V312.629L380.449 321.215H378.208V307.715H381.07V316.274ZM399.384 314.33L405.54 321.215H402.057L396.522 314.978V321.215H393.606V307.715H396.522V313.682L401.76 307.715H405.324L399.384 314.33ZM417.113 309.632V307.715H420.029V321.215H417.113V319.271C416.015 320.801 414.44 321.566 412.388 321.566C410.534 321.566 408.95 320.882 407.636 319.514C406.322 318.146 405.665 316.463 405.665 314.465C405.665 312.467 406.322 310.784 407.636 309.416C408.95 308.048 410.534 307.364 412.388 307.364C414.44 307.364 416.015 308.12 417.113 309.632ZM409.796 317.57C410.606 318.38 411.623 318.785 412.847 318.785C414.071 318.785 415.088 318.38 415.898 317.57C416.708 316.742 417.113 315.707 417.113 314.465C417.113 313.223 416.708 312.197 415.898 311.387C415.088 310.559 414.071 310.145 412.847 310.145C411.623 310.145 410.606 310.559 409.796 311.387C408.986 312.197 408.581 313.223 408.581 314.465C408.581 315.689 408.986 316.724 409.796 317.57ZM424.481 307.715H434.822V321.215H431.906V310.523H427.397V315.545C427.397 317.651 426.938 319.163 426.02 320.081C425.102 320.999 423.761 321.377 421.997 321.215V318.488C422.825 318.632 423.446 318.461 423.86 317.975C424.274 317.471 424.481 316.616 424.481 315.41V307.715ZM441.136 312.305H444.106C445.564 312.305 446.743 312.719 447.643 313.547C448.561 314.357 449.02 315.428 449.02 316.76C449.02 318.074 448.561 319.145 447.643 319.973C446.743 320.801 445.564 321.215 444.106 321.215H438.22V307.715H441.136V312.305ZM441.136 318.596H444.133C444.709 318.596 445.186 318.425 445.564 318.083C445.96 317.741 446.158 317.3 446.158 316.76C446.158 316.22 445.969 315.779 445.591 315.437C445.213 315.095 444.727 314.924 444.133 314.924H441.136V318.596ZM460.502 313.088V307.715H463.418V321.215H460.502V315.842H454.319V321.215H451.403V307.715H454.319V313.088H460.502ZM478.223 319.514C476.855 320.882 475.172 321.566 473.174 321.566C471.176 321.566 469.493 320.882 468.125 319.514C466.739 318.128 466.046 316.445 466.046 314.465C466.046 312.485 466.739 310.802 468.125 309.416C469.493 308.048 471.176 307.364 473.174 307.364C475.172 307.364 476.855 308.048 478.223 309.416C479.609 310.802 480.302 312.485 480.302 314.465C480.302 316.445 479.609 318.128 478.223 319.514ZM468.962 314.465C468.962 315.689 469.367 316.706 470.177 317.516C470.987 318.326 471.986 318.731 473.174 318.731C474.362 318.731 475.361 318.326 476.171 317.516C476.981 316.706 477.386 315.689 477.386 314.465C477.386 313.241 476.981 312.224 476.171 311.414C475.361 310.604 474.362 310.199 473.174 310.199C471.986 310.199 470.987 310.604 470.177 311.414C469.367 312.224 468.962 313.241 468.962 314.465ZM489.31 321.566C487.276 321.566 485.575 320.882 484.207 319.514C482.857 318.128 482.182 316.445 482.182 314.465C482.182 312.449 482.857 310.766 484.207 309.416C485.575 308.048 487.276 307.364 489.31 307.364C490.624 307.364 491.821 307.679 492.901 308.309C493.981 308.939 494.791 309.785 495.331 310.847L492.82 312.305C492.514 311.657 492.046 311.153 491.416 310.793C490.804 310.415 490.093 310.226 489.283 310.226C488.095 310.226 487.096 310.631 486.286 311.441C485.494 312.269 485.098 313.277 485.098 314.465C485.098 315.653 485.494 316.661 486.286 317.489C487.096 318.299 488.095 318.704 489.283 318.704C490.075 318.704 490.786 318.524 491.416 318.164C492.064 317.786 492.55 317.273 492.874 316.625L495.385 318.056C494.809 319.136 493.972 319.991 492.874 320.621C491.794 321.251 490.606 321.566 489.31 321.566ZM495.93 307.715H507.675V310.523H503.274V321.215H500.358V310.523H495.93V307.715ZM512.564 312.305H515.534C516.992 312.305 518.171 312.719 519.071 313.547C519.989 314.357 520.448 315.428 520.448 316.76C520.448 318.074 519.989 319.145 519.071 319.973C518.171 320.801 516.992 321.215 515.534 321.215H509.648V307.715H512.564V312.305ZM512.564 318.596H515.561C516.137 318.596 516.614 318.425 516.992 318.083C517.388 317.741 517.586 317.3 517.586 316.76C517.586 316.22 517.397 315.779 517.019 315.437C516.641 315.095 516.155 314.924 515.561 314.924H512.564V318.596Z" fill="#212043"/>
</g>
<g filter="url(#filter2_d_74_196)">
<rect x="680" y="72.2148" width="202" height="85" rx="15" fill="white" shape-rendering="crispEdges"/>
<path d="M730.397 113.278L734.528 103.315H737.66L731.801 117.355C730.361 120.793 728.03 122.413 724.808 122.215V119.326C725.87 119.434 726.725 119.281 727.373 118.867C728.039 118.435 728.57 117.706 728.966 116.68L722.675 103.315H725.807L730.397 113.278ZM749.345 108.715V119.461H751.154V125.833H748.292V122.215H739.031V125.833H736.169V119.461H737.816C738.644 118.309 739.058 116.68 739.058 114.574V108.715H749.345ZM741.029 119.461H746.483V111.388H741.92V114.574C741.92 116.518 741.623 118.147 741.029 119.461ZM764.416 120.514C763.048 121.882 761.365 122.566 759.367 122.566C757.369 122.566 755.686 121.882 754.318 120.514C752.932 119.128 752.239 117.445 752.239 115.465C752.239 113.485 752.932 111.802 754.318 110.416C755.686 109.048 757.369 108.364 759.367 108.364C761.365 108.364 763.048 109.048 764.416 110.416C765.802 111.802 766.495 113.485 766.495 115.465C766.495 117.445 765.802 119.128 764.416 120.514ZM755.155 115.465C755.155 116.689 755.56 117.706 756.37 118.516C757.18 119.326 758.179 119.731 759.367 119.731C760.555 119.731 761.554 119.326 762.364 118.516C763.174 117.706 763.579 116.689 763.579 115.465C763.579 114.241 763.174 113.224 762.364 112.414C761.554 111.604 760.555 111.199 759.367 111.199C758.179 111.199 757.18 111.604 756.37 112.414C755.56 113.224 755.155 114.241 755.155 115.465ZM775.396 122.566C773.344 122.566 771.652 121.9 770.32 120.568C769.024 119.218 768.376 117.499 768.376 115.411C768.376 113.143 768.718 111.379 769.402 110.119C770.068 108.877 771.454 107.734 773.56 106.69C773.632 106.654 773.749 106.6 773.911 106.528C774.091 106.438 774.28 106.348 774.478 106.258C774.676 106.168 774.874 106.078 775.072 105.988C775.828 105.646 776.296 105.43 776.476 105.34C776.584 105.286 776.899 105.088 777.421 104.746C778.051 104.296 778.474 103.657 778.69 102.829L781.066 104.206C780.976 105.196 780.355 106.105 779.203 106.933C779.005 107.113 778.636 107.329 778.096 107.581L776.935 108.121L775.585 108.688C774.415 109.156 773.551 109.633 772.993 110.119C772.435 110.605 772.048 111.226 771.832 111.982C772.912 110.758 774.379 110.146 776.233 110.146C777.817 110.146 779.194 110.713 780.364 111.847C781.552 112.981 782.146 114.448 782.146 116.248C782.146 118.084 781.516 119.596 780.256 120.784C779.014 121.972 777.394 122.566 775.396 122.566ZM775.369 119.839C776.503 119.839 777.43 119.506 778.15 118.84C778.87 118.156 779.23 117.292 779.23 116.248C779.23 115.186 778.87 114.313 778.15 113.629C777.448 112.945 776.53 112.603 775.396 112.603C774.388 112.603 773.479 112.927 772.669 113.575C771.859 114.187 771.454 115.033 771.454 116.113C771.454 117.193 771.832 118.084 772.588 118.786C773.344 119.488 774.271 119.839 775.369 119.839ZM790.823 122.566C788.789 122.566 787.088 121.882 785.72 120.514C784.37 119.128 783.695 117.445 783.695 115.465C783.695 113.449 784.37 111.766 785.72 110.416C787.088 109.048 788.789 108.364 790.823 108.364C792.137 108.364 793.334 108.679 794.414 109.309C795.494 109.939 796.304 110.785 796.844 111.847L794.333 113.305C794.027 112.657 793.559 112.153 792.929 111.793C792.317 111.415 791.606 111.226 790.796 111.226C789.608 111.226 788.609 111.631 787.799 112.441C787.007 113.269 786.611 114.277 786.611 115.465C786.611 116.653 787.007 117.661 787.799 118.489C788.609 119.299 789.608 119.704 790.796 119.704C791.588 119.704 792.299 119.524 792.929 119.164C793.577 118.786 794.063 118.273 794.387 117.625L796.898 119.056C796.322 120.136 795.485 120.991 794.387 121.621C793.307 122.251 792.119 122.566 790.823 122.566ZM797.443 108.715H809.188V111.523H804.787V122.215H801.871V111.523H797.443V108.715ZM820.503 115.276C821.835 115.906 822.501 116.941 822.501 118.381C822.501 119.533 822.105 120.46 821.313 121.162C820.539 121.864 819.459 122.215 818.073 122.215H811.161V108.715H817.533C818.901 108.715 819.972 109.057 820.746 109.741C821.52 110.425 821.907 111.325 821.907 112.441C821.907 113.719 821.439 114.664 820.503 115.276ZM817.317 111.199H813.942V114.196H817.317C818.505 114.196 819.099 113.692 819.099 112.684C819.099 111.694 818.505 111.199 817.317 111.199ZM813.942 119.677H817.803C819.027 119.677 819.639 119.146 819.639 118.084C819.639 117.616 819.477 117.256 819.153 117.004C818.829 116.734 818.379 116.599 817.803 116.599H813.942V119.677ZM836.293 120.514C834.925 121.882 833.242 122.566 831.244 122.566C829.246 122.566 827.563 121.882 826.195 120.514C824.809 119.128 824.116 117.445 824.116 115.465C824.116 113.485 824.809 111.802 826.195 110.416C827.563 109.048 829.246 108.364 831.244 108.364C833.242 108.364 834.925 109.048 836.293 110.416C837.679 111.802 838.372 113.485 838.372 115.465C838.372 117.445 837.679 119.128 836.293 120.514ZM827.032 115.465C827.032 116.689 827.437 117.706 828.247 118.516C829.057 119.326 830.056 119.731 831.244 119.731C832.432 119.731 833.431 119.326 834.241 118.516C835.051 117.706 835.456 116.689 835.456 115.465C835.456 114.241 835.051 113.224 834.241 112.414C833.431 111.604 832.432 111.199 831.244 111.199C830.056 111.199 829.057 111.604 828.247 112.414C827.437 113.224 827.032 114.241 827.032 115.465Z" fill="#212043"/>
</g>
<g filter="url(#filter3_d_74_196)">
<rect x="815" y="221.215" width="288" height="85" rx="15" fill="white" shape-rendering="crispEdges"/>
<path d="M874.685 268.731C872.795 270.621 870.482 271.566 867.746 271.566C865.01 271.566 862.688 270.621 860.78 268.731C858.89 266.823 857.945 264.501 857.945 261.765C857.945 259.029 858.89 256.716 860.78 254.826C862.688 252.918 865.01 251.964 867.746 251.964C870.482 251.964 872.795 252.918 874.685 254.826C876.593 256.716 877.547 259.029 877.547 261.765C877.547 264.501 876.593 266.823 874.685 268.731ZM862.967 266.625C864.281 267.903 865.874 268.542 867.746 268.542C869.636 268.542 871.22 267.903 872.498 266.625C873.794 265.329 874.442 263.709 874.442 261.765C874.442 259.821 873.794 258.21 872.498 256.932C871.22 255.636 869.636 254.988 867.746 254.988C865.856 254.988 864.263 255.636 862.967 256.932C861.689 258.21 861.05 259.821 861.05 261.765C861.05 263.691 861.689 265.311 862.967 266.625ZM886.454 271.566C884.402 271.566 882.71 270.9 881.378 269.568C880.082 268.218 879.434 266.499 879.434 264.411C879.434 262.143 879.776 260.379 880.46 259.119C881.126 257.877 882.512 256.734 884.618 255.69C884.69 255.654 884.807 255.6 884.969 255.528C885.149 255.438 885.338 255.348 885.536 255.258C885.734 255.168 885.932 255.078 886.13 254.988C886.886 254.646 887.354 254.43 887.534 254.34C887.642 254.286 887.957 254.088 888.479 253.746C889.109 253.296 889.532 252.657 889.748 251.829L892.124 253.206C892.034 254.196 891.413 255.105 890.261 255.933C890.063 256.113 889.694 256.329 889.154 256.581L887.993 257.121L886.643 257.688C885.473 258.156 884.609 258.633 884.051 259.119C883.493 259.605 883.106 260.226 882.89 260.982C883.97 259.758 885.437 259.146 887.291 259.146C888.875 259.146 890.252 259.713 891.422 260.847C892.61 261.981 893.204 263.448 893.204 265.248C893.204 267.084 892.574 268.596 891.314 269.784C890.072 270.972 888.452 271.566 886.454 271.566ZM886.427 268.839C887.561 268.839 888.488 268.506 889.208 267.84C889.928 267.156 890.288 266.292 890.288 265.248C890.288 264.186 889.928 263.313 889.208 262.629C888.506 261.945 887.588 261.603 886.454 261.603C885.446 261.603 884.537 261.927 883.727 262.575C882.917 263.187 882.512 264.033 882.512 265.113C882.512 266.193 882.89 267.084 883.646 267.786C884.402 268.488 885.329 268.839 886.427 268.839ZM903.151 257.364C904.987 257.364 906.571 258.057 907.903 259.443C909.217 260.811 909.874 262.485 909.874 264.465C909.874 266.463 909.217 268.146 907.903 269.514C906.589 270.882 905.005 271.566 903.151 271.566C901.117 271.566 899.542 270.81 898.426 269.298V276.615H895.51V257.715H898.426V259.659C899.524 258.129 901.099 257.364 903.151 257.364ZM899.641 267.57C900.451 268.38 901.468 268.785 902.692 268.785C903.916 268.785 904.933 268.38 905.743 267.57C906.553 266.742 906.958 265.707 906.958 264.465C906.958 263.223 906.553 262.197 905.743 261.387C904.933 260.559 903.916 260.145 902.692 260.145C901.468 260.145 900.451 260.559 899.641 261.387C898.831 262.197 898.426 263.223 898.426 264.465C898.426 265.689 898.831 266.724 899.641 267.57ZM923.208 259.632V257.715H926.124V271.215H923.208V269.271C922.11 270.801 920.535 271.566 918.483 271.566C916.629 271.566 915.045 270.882 913.731 269.514C912.417 268.146 911.76 266.463 911.76 264.465C911.76 262.467 912.417 260.784 913.731 259.416C915.045 258.048 916.629 257.364 918.483 257.364C920.535 257.364 922.11 258.12 923.208 259.632ZM915.891 267.57C916.701 268.38 917.718 268.785 918.942 268.785C920.166 268.785 921.183 268.38 921.993 267.57C922.803 266.742 923.208 265.707 923.208 264.465C923.208 263.223 922.803 262.197 921.993 261.387C921.183 260.559 920.166 260.145 918.942 260.145C917.718 260.145 916.701 260.559 915.891 261.387C915.081 262.197 914.676 263.223 914.676 264.465C914.676 265.689 915.081 266.724 915.891 267.57ZM928.092 257.715H939.837V260.523H935.436V271.215H932.52V260.523H928.092V257.715ZM950.909 263.088V257.715H953.825V271.215H950.909V265.842H944.726V271.215H941.81V257.715H944.726V263.088H950.909ZM967.901 259.632V257.715H970.817V271.215H967.901V269.271C966.803 270.801 965.228 271.566 963.176 271.566C961.322 271.566 959.738 270.882 958.424 269.514C957.11 268.146 956.453 266.463 956.453 264.465C956.453 262.467 957.11 260.784 958.424 259.416C959.738 258.048 961.322 257.364 963.176 257.364C965.228 257.364 966.803 258.12 967.901 259.632ZM960.584 267.57C961.394 268.38 962.411 268.785 963.635 268.785C964.859 268.785 965.876 268.38 966.686 267.57C967.496 266.742 967.901 265.707 967.901 264.465C967.901 263.223 967.496 262.197 966.686 261.387C965.876 260.559 964.859 260.145 963.635 260.145C962.411 260.145 961.394 260.559 960.584 261.387C959.774 262.197 959.369 263.223 959.369 264.465C959.369 265.689 959.774 266.724 960.584 267.57ZM978.644 257.715H984.665V271.215H981.803V266.679H980.183L976.754 271.215H973.325L976.97 266.409C976.034 266.103 975.278 265.563 974.702 264.789C974.144 264.015 973.865 263.151 973.865 262.197C973.865 260.955 974.306 259.902 975.188 259.038C976.07 258.156 977.222 257.715 978.644 257.715ZM978.806 264.168H981.803V260.361H978.806C978.194 260.361 977.69 260.541 977.294 260.901C976.916 261.243 976.727 261.702 976.727 262.278C976.727 262.854 976.916 263.313 977.294 263.655C977.69 263.997 978.194 264.168 978.806 264.168ZM1001.18 271.566C999.146 271.566 997.445 270.882 996.077 269.514C994.727 268.128 994.052 266.445 994.052 264.465C994.052 262.449 994.727 260.766 996.077 259.416C997.445 258.048 999.146 257.364 1001.18 257.364C1002.49 257.364 1003.69 257.679 1004.77 258.309C1005.85 258.939 1006.66 259.785 1007.2 260.847L1004.69 262.305C1004.38 261.657 1003.92 261.153 1003.29 260.793C1002.67 260.415 1001.96 260.226 1001.15 260.226C999.965 260.226 998.966 260.631 998.156 261.441C997.364 262.269 996.968 263.277 996.968 264.465C996.968 265.653 997.364 266.661 998.156 267.489C998.966 268.299 999.965 268.704 1001.15 268.704C1001.95 268.704 1002.66 268.524 1003.29 268.164C1003.93 267.786 1004.42 267.273 1004.74 266.625L1007.26 268.056C1006.68 269.136 1005.84 269.991 1004.74 270.621C1003.66 271.251 1002.48 271.566 1001.18 271.566ZM1018.78 264.276C1020.12 264.906 1020.78 265.941 1020.78 267.381C1020.78 268.533 1020.39 269.46 1019.59 270.162C1018.82 270.864 1017.74 271.215 1016.35 271.215H1009.44V257.715H1015.81C1017.18 257.715 1018.25 258.057 1019.03 258.741C1019.8 259.425 1020.19 260.325 1020.19 261.441C1020.19 262.719 1019.72 263.664 1018.78 264.276ZM1015.6 260.199H1012.22V263.196H1015.6C1016.79 263.196 1017.38 262.692 1017.38 261.684C1017.38 260.694 1016.79 260.199 1015.6 260.199ZM1012.22 268.677H1016.08C1017.31 268.677 1017.92 268.146 1017.92 267.084C1017.92 266.616 1017.76 266.256 1017.43 266.004C1017.11 265.734 1016.66 265.599 1016.08 265.599H1012.22V268.677ZM1027.05 257.715H1033.07V271.215H1030.21V266.679H1028.59L1025.16 271.215H1021.73L1025.38 266.409C1024.44 266.103 1023.69 265.563 1023.11 264.789C1022.55 264.015 1022.27 263.151 1022.27 262.197C1022.27 260.955 1022.72 259.902 1023.6 259.038C1024.48 258.156 1025.63 257.715 1027.05 257.715ZM1027.22 264.168H1030.21V260.361H1027.22C1026.6 260.361 1026.1 260.541 1025.7 260.901C1025.33 261.243 1025.14 261.702 1025.14 262.278C1025.14 262.854 1025.33 263.313 1025.7 263.655C1026.1 263.997 1026.6 264.168 1027.22 264.168ZM1044.06 264.303C1045.5 264.951 1046.22 266.022 1046.22 267.516C1046.22 268.686 1045.74 269.658 1044.78 270.432C1043.83 271.188 1042.53 271.566 1040.9 271.566C1038.18 271.566 1036.34 270.486 1035.39 268.326L1037.76 266.922C1038.25 268.272 1039.3 268.947 1040.92 268.947C1041.68 268.947 1042.27 268.794 1042.71 268.488C1043.14 268.164 1043.35 267.741 1043.35 267.219C1043.35 266.751 1043.18 266.382 1042.84 266.112C1042.5 265.824 1042.02 265.68 1041.41 265.68H1039.49V263.115H1040.92C1041.52 263.115 1041.98 262.98 1042.3 262.71C1042.64 262.422 1042.81 262.035 1042.81 261.549C1042.81 261.081 1042.62 260.703 1042.25 260.415C1041.87 260.109 1041.36 259.956 1040.73 259.956C1039.38 259.956 1038.45 260.55 1037.93 261.738L1035.55 260.388C1036.54 258.372 1038.25 257.364 1040.68 257.364C1042.19 257.364 1043.39 257.751 1044.27 258.525C1045.17 259.281 1045.62 260.208 1045.62 261.306C1045.62 262.656 1045.1 263.655 1044.06 264.303ZM1051.51 262.305H1054.48C1055.94 262.305 1057.12 262.719 1058.02 263.547C1058.94 264.357 1059.4 265.428 1059.4 266.76C1059.4 268.074 1058.94 269.145 1058.02 269.973C1057.12 270.801 1055.94 271.215 1054.48 271.215H1048.6V257.715H1051.51V262.305ZM1051.51 268.596H1054.51C1055.09 268.596 1055.56 268.425 1055.94 268.083C1056.34 267.741 1056.54 267.3 1056.54 266.76C1056.54 266.22 1056.35 265.779 1055.97 265.437C1055.59 265.095 1055.1 264.924 1054.51 264.924H1051.51V268.596Z" fill="#212043"/>
</g>
<defs>
<filter id="filter0_d_74_196" x="0" y="75.2148" width="451" height="209" filterUnits="userSpaceOnUse" color-interpolation-filters="sRGB">
<feFlood flood-opacity="0" result="BackgroundImageFix"/>
<feColorMatrix in="SourceAlpha" type="matrix" values="0 0 0 0 0 0 0 0 0 0 0 0 0 0 0 0 0 0 127 0" result="hardAlpha"/>
<feOffset dy="48"/>
<feGaussianBlur stdDeviation="31"/>
<feComposite in2="hardAlpha" operator="out"/>
<feColorMatrix type="matrix" values="0 0 0 0 0.130814 0 0 0 0 0.10724 0 0 0 0 0.295833 0 0 0 0.13 0"/>
<feBlend mode="normal" in2="BackgroundImageFix" result="effect1_dropShadow_74_196"/>
<feBlend mode="normal" in="SourceGraphic" in2="effect1_dropShadow_74_196" result="shape"/>
</filter>
<filter id="filter1_d_74_196" x="242" y="257.215" width="384" height="209" filterUnits="userSpaceOnUse" color-interpolation-filters="sRGB">
<feFlood flood-opacity="0" result="BackgroundImageFix"/>
<feColorMatrix in="SourceAlpha" type="matrix" values="0 0 0 0 0 0 0 0 0 0 0 0 0 0 0 0 0 0 127 0" result="hardAlpha"/>
<feOffset dy="48"/>
<feGaussianBlur stdDeviation="31"/>
<feComposite in2="hardAlpha" operator="out"/>
<feColorMatrix type="matrix" values="0 0 0 0 0.130814 0 0 0 0 0.10724 0 0 0 0 0.295833 0 0 0 0.13 0"/>
<feBlend mode="normal" in2="BackgroundImageFix" result="effect1_dropShadow_74_196"/>
<feBlend mode="normal" in="SourceGraphic" in2="effect1_dropShadow_74_196" result="shape"/>
</filter>
<filter id="filter2_d_74_196" x="618" y="58.2148" width="326" height="209" filterUnits="userSpaceOnUse" color-interpolation-filters="sRGB">
<feFlood flood-opacity="0" result="BackgroundImageFix"/>
<feColorMatrix in="SourceAlpha" type="matrix" values="0 0 0 0 0 0 0 0 0 0 0 0 0 0 0 0 0 0 127 0" result="hardAlpha"/>
<feOffset dy="48"/>
<feGaussianBlur stdDeviation="31"/>
<feComposite in2="hardAlpha" operator="out"/>
<feColorMatrix type="matrix" values="0 0 0 0 0.130814 0 0 0 0 0.10724 0 0 0 0 0.295833 0 0 0 0.13 0"/>
<feBlend mode="normal" in2="BackgroundImageFix" result="effect1_dropShadow_74_196"/>
<feBlend mode="normal" in="SourceGraphic" in2="effect1_dropShadow_74_196" result="shape"/>
</filter>
<filter id="filter3_d_74_196" x="753" y="207.215" width="412" height="209" filterUnits="userSpaceOnUse" color-interpolation-filters="sRGB">
<feFlood flood-opacity="0" result="BackgroundImageFix"/>
<feColorMatrix in="SourceAlpha" type="matrix" values="0 0 0 0 0 0 0 0 0 0 0 0 0 0 0 0 0 0 127 0" result="hardAlpha"/>
<feOffset dy="48"/>
<feGaussianBlur stdDeviation="31"/>
<feComposite in2="hardAlpha" operator="out"/>
<feColorMatrix type="matrix" values="0 0 0 0 0.130814 0 0 0 0 0.10724 0 0 0 0 0.295833 0 0 0 0.13 0"/>
<feBlend mode="normal" in2="BackgroundImageFix" result="effect1_dropShadow_74_196"/>
<feBlend mode="normal" in="SourceGraphic" in2="effect1_dropShadow_74_196" result="shape"/>
</filter>
</defs>
</svg>
