<svg width="29" height="40" viewBox="0 0 29 40" fill="none" xmlns="http://www.w3.org/2000/svg">
<path d="M14.6033 0L11.7656 5.79218C9.73793 9.93016 7.02031 13.6936 3.729 16.9214L3.35617 17.2731C1.24234 19.3226 0.0345633 22.1297 0.000673751 25.0719V25.4442C-0.0553131 31.2056 3.38228 36.4289 8.70011 38.6628L9.23865 38.8903C12.7264 40.3699 16.6666 40.3699 20.1544 38.8903H20.2787C25.6362 36.5656 29.0737 31.257 28.9988 25.4235V16.4456C27.2134 20.5178 23.971 23.7782 19.9058 25.589C19.9058 25.589 19.9058 25.589 19.7815 25.589C19.6573 25.589 18.2074 26.1889 17.586 25.589C17.031 25.0282 16.9778 24.1435 17.4617 23.5204L17.6067 23.4169H17.7102C22.4655 19.8071 23.5741 13.1187 20.2372 8.17111C17.5445 4.07521 14.6033 0 14.6033 0Z" fill="#FF3062"/>
</svg>
