<svg width="39" height="39" viewBox="0 0 39 39" fill="none" xmlns="http://www.w3.org/2000/svg">
<rect y="0.2771" width="38.261" height="38.261" rx="10.1509" fill="#15C993"/>
<path d="M19.1307 9.97266C13.9281 9.97266 9.69556 14.2052 9.69556 19.4078V23.3167C9.69556 24.2829 10.5419 25.0688 11.5826 25.0688H12.5261C12.7763 25.0688 13.0163 24.9694 13.1933 24.7925C13.3702 24.6156 13.4696 24.3756 13.4696 24.1253V19.2728C13.4696 19.0226 13.3702 18.7826 13.1933 18.6057C13.0163 18.4287 12.7763 18.3293 12.5261 18.3293H11.6694C12.194 14.6779 15.3359 11.8597 19.1307 11.8597C22.9255 11.8597 26.0674 14.6779 26.592 18.3293H25.7353C25.485 18.3293 25.245 18.4287 25.0681 18.6057C24.8911 18.7826 24.7917 19.0226 24.7917 19.2728V25.0688C24.7917 26.1095 23.9454 26.9559 22.9047 26.9559H21.0177V26.0124H17.2436V28.8429H22.9047C24.9861 28.8429 26.6788 27.1502 26.6788 25.0688C27.7195 25.0688 28.5658 24.2829 28.5658 23.3167V19.4078C28.5658 14.2052 24.3332 9.97266 19.1307 9.97266Z" fill="white"/>
</svg>
