<svg width="351" viewBox="0 0 351 231" fill="none" xmlns="http://www.w3.org/2000/svg">
<path d="M15.9799 217.012C17.0718 225.916 27.1518 232.048 38.3657 230.662L310.397 197.272C321.611 195.886 329.927 187.486 328.835 178.583L326.777 161.909L13.9219 200.296L15.9799 217.012Z" fill="#20A27B"/>
<path d="M313.001 49.5177C311.657 38.5558 301.367 30.7018 290.153 32.0878L18.1216 65.4775C6.90766 66.8635 -1.19826 76.9434 0.145725 87.9053L5.89967 134.651L318.755 96.2632L313.001 49.5177Z" fill="#32EBB5"/>
<rect x="5.76758" y="134.664" width="315.148" height="66.1878" transform="rotate(-6.99638 5.76758 134.664)" fill="#29C094"/>
<path d="M40.8429 126.125C50.3067 126.125 57.9787 118.453 57.9787 108.989C57.9787 99.5252 50.3067 91.8532 40.8429 91.8532C31.379 91.8532 23.707 99.5252 23.707 108.989C23.707 118.453 31.379 126.125 40.8429 126.125Z" fill="#0F8D67"/>
<path d="M287.926 140.993L245.171 146.243C238.913 146.999 233.159 142.505 232.403 136.289L229.673 114.113C228.917 107.855 233.411 102.101 239.627 101.345L282.382 96.0951C288.64 95.3391 294.394 99.8331 295.15 106.049L297.88 128.225C298.636 134.483 294.142 140.237 287.926 140.993Z" fill="#978CFF"/>
<path d="M35.3398 157.792C35.3398 169.09 44.5798 178.372 55.9197 178.372H329.967C341.265 178.372 350.547 169.132 350.547 157.792V136.583H35.3818V157.792H35.3398Z" fill="#72EFC9"/>
<path d="M350.547 20.5798C350.547 9.28192 341.307 0 329.967 0H55.9197C44.6218 0 35.3398 9.23992 35.3398 20.5798V68.7954H350.505V20.5798H350.547Z" fill="#15C993"/>
<rect x="35.3398" y="68.8372" width="315.165" height="67.7874" fill="#E3E5FC"/>
<path d="M77.6339 51.8694C87.0978 51.8694 94.7697 44.1974 94.7697 34.7335C94.7697 25.2697 87.0978 17.5977 77.6339 17.5977C68.17 17.5977 60.498 25.2697 60.498 34.7335C60.498 44.1974 68.17 51.8694 77.6339 51.8694Z" fill="#0F8D67"/>
<path d="M318.964 96.6411H275.872C269.572 96.6411 264.406 91.4751 264.406 85.1752V62.8314C264.406 56.5314 269.572 51.3655 275.872 51.3655H318.964C325.264 51.3655 330.43 56.5314 330.43 62.8314V85.1752C330.388 91.4751 325.264 96.6411 318.964 96.6411Z" fill="#0F8D67"/>
<path d="M109.342 125.159H63.8145C60.5806 125.159 57.8926 122.513 57.8926 119.237V118.187C57.8926 114.953 60.5386 112.265 63.8145 112.265H109.342C112.576 112.265 115.264 114.911 115.264 118.187V119.237C115.222 122.513 112.576 125.159 109.342 125.159Z" fill="white"/>
<path d="M181.371 125.159H135.844C132.61 125.159 129.922 122.513 129.922 119.237V118.187C129.922 114.953 132.568 112.265 135.844 112.265H181.371C184.605 112.265 187.293 114.911 187.293 118.187V119.237C187.251 122.513 184.605 125.159 181.371 125.159Z" fill="white"/>
<path d="M253.401 125.159H207.873C204.639 125.159 201.951 122.513 201.951 119.237V118.187C201.951 114.953 204.597 112.265 207.873 112.265H253.401C256.635 112.265 259.323 114.911 259.323 118.187V119.237C259.281 122.513 256.635 125.159 253.401 125.159Z" fill="white"/>
<path d="M324.508 125.159H278.981C275.747 125.159 273.059 122.513 273.059 119.237V118.187C273.059 114.953 275.705 112.265 278.981 112.265H324.508C327.742 112.265 330.43 114.911 330.43 118.187V119.237C330.388 122.513 327.742 125.159 324.508 125.159Z" fill="white"/>
</svg>
