<svg width="356" viewBox="0 0 356 439" fill="none" xmlns="http://www.w3.org/2000/svg">
<g clip-path="url(#clip0_115_1361)">
<path d="M251.4 57.0699H317.15C317.15 57.0699 311.34 46.4899 294.41 48.0699C278.25 49.5399 277.41 42.8599 269.21 42.0699C261.01 41.2799 254.14 47.4799 251.4 57.0699Z" fill="#E0E0E0"/>
<path d="M79.54 230.89C79.54 230.89 72.95 234.45 82.54 248.21C92.13 261.97 98.37 268.57 98.37 268.57C98.37 268.57 100.19 271.82 97.37 272.75C94.55 273.68 88.04 273.55 87.24 277.26C86.41 281.12 89.56 284.26 95.38 286.51C101.2 288.76 113.78 294.29 114.91 294.79C116.04 295.29 117.28 296.74 115.46 297.68C113.64 298.62 99.53 302.09 101.57 308.68C103.61 315.27 120.89 319 122.77 319.44C124.65 319.88 125.18 320.58 125.17 321.58C125.16 322.58 120.31 323.3 116.33 324.45C112.35 325.6 107.95 327.64 109.45 331.35C110.95 335.06 121.81 341.79 145.79 340.84L156.87 339.68L161.59 329.53C170.36 307.2 167.59 294.73 164.59 292.09C161.59 289.45 158.21 292.95 155.82 296.33C153.43 299.71 151.15 304.05 150.2 303.73C149.25 303.41 148.77 302.68 148.97 300.73C149.17 298.78 151.34 281.27 145.78 277.17C140.22 273.07 132.3 285.25 130.78 286.66C129.26 288.07 128.33 286.41 128.23 285.19C128.13 283.97 127.08 270.28 126.83 264.02C126.58 257.76 124.69 253.78 120.78 253.3C116.87 252.82 115 259.02 113.19 261.38C111.38 263.74 108.91 260.95 108.91 260.95C108.91 260.95 104.72 252.89 94.91 239.31C85.1 225.73 79.41 230.99 79.41 230.99" fill="#EBEBEB"/>
<path d="M157.801 342.21C150.611 332.21 138.141 314.21 127.351 298.82C116.561 283.43 106.791 269.51 99.6513 259.47C96.0813 254.47 93.2013 250.41 91.1913 247.6L88.8913 244.36L88.3013 243.52C88.1713 243.33 88.1113 243.22 88.1113 243.22C88.1113 243.22 88.1913 243.31 88.3313 243.5L88.9513 244.32C89.4913 245.07 90.2813 246.14 91.3013 247.52C93.3013 250.29 96.3013 254.33 99.8513 259.33C107.041 269.33 116.851 283.23 127.631 298.62C138.411 314.01 150.861 332.03 158.001 342.06" fill="#E0E0E0"/>
<path d="M96.3398 277.82C96.6094 277.831 96.8773 277.868 97.1398 277.93C97.6498 278.02 98.3799 278.17 99.2899 278.37C101.1 278.76 103.58 279.37 106.29 280.09L113.29 281.96L115.41 282.52C115.675 282.565 115.933 282.642 116.18 282.75C115.91 282.746 115.642 282.713 115.38 282.65C114.87 282.56 114.14 282.41 113.23 282.2C111.43 281.79 108.95 281.2 106.23 280.43L99.2298 278.61L97.1098 278.06C96.8435 278.015 96.5845 277.934 96.3398 277.82Z" fill="#E0E0E0"/>
<path d="M116.841 281.99C116.741 281.99 117.771 276.79 119.131 270.43C120.491 264.07 121.681 258.92 121.771 258.94C121.861 258.96 120.841 264.13 119.471 270.5C118.101 276.87 116.931 281.99 116.841 281.99Z" fill="#E0E0E0"/>
<path d="M132.34 306.32C132.426 306.06 132.543 305.811 132.69 305.58L133.75 303.58C134.64 301.92 135.87 299.58 137.12 297.02C138.37 294.46 139.45 292.02 140.2 290.33L141.1 288.28C141.186 288.016 141.311 287.767 141.47 287.54C141.414 287.81 141.334 288.075 141.23 288.33C141.05 288.83 140.78 289.54 140.43 290.42C139.73 292.18 138.7 294.58 137.43 297.18C136.16 299.78 134.9 302.06 133.96 303.7C133.48 304.51 133.08 305.17 132.8 305.62C132.668 305.867 132.514 306.101 132.34 306.32Z" fill="#E0E0E0"/>
<path d="M112.98 306.68C113.225 306.612 113.477 306.582 113.73 306.59L115.8 306.47C117.54 306.38 119.95 306.29 122.61 306.2C125.27 306.11 127.68 306.06 129.43 306.04H131.5C131.753 306.008 132.008 306.008 132.26 306.04C132.011 306.094 131.756 306.124 131.5 306.13L129.44 306.25C127.69 306.33 125.28 306.43 122.62 306.51C119.96 306.59 117.55 306.65 115.8 306.67H113.74C113.488 306.703 113.233 306.706 112.98 306.68Z" fill="#E0E0E0"/>
<path d="M123.93 329.99C124.258 329.917 124.593 329.88 124.93 329.88L127.58 329.72C129.81 329.6 132.9 329.45 136.31 329.31C139.72 329.17 142.81 329.07 145.04 329.01L147.69 328.95C148.022 328.923 148.357 328.923 148.69 328.95C148.36 329.014 148.025 329.051 147.69 329.06L145.04 329.22C142.81 329.34 139.72 329.49 136.31 329.63C132.9 329.77 129.81 329.87 127.58 329.93L124.93 329.99C124.597 330.017 124.262 330.017 123.93 329.99Z" fill="#E0E0E0"/>
<path d="M148.031 328.79C148.144 328.462 148.285 328.144 148.451 327.84L149.711 325.29C150.771 323.14 152.211 320.17 153.711 316.84C155.211 313.51 156.511 310.47 157.431 308.25L158.521 305.63C158.641 305.306 158.785 304.992 158.951 304.69C158.882 305.033 158.778 305.368 158.641 305.69C158.421 306.33 158.091 307.24 157.641 308.35C156.781 310.59 155.521 313.66 154.011 316.99C152.501 320.32 151.011 323.29 149.901 325.41C149.341 326.47 148.901 327.33 148.541 327.91C148.393 328.216 148.223 328.51 148.031 328.79Z" fill="#E0E0E0"/>
<path d="M241.021 181.21C229.121 167.86 230.261 148.59 234.771 132.1C235.521 129.34 235.911 126.34 237.771 124.22C239.631 122.1 243.141 121.16 245.351 122.92C247.181 124.38 247.511 126.99 248.191 129.25C249.095 132.255 250.828 134.945 253.191 137.01C254.741 138.35 256.791 139.42 258.771 138.88C261.481 138.12 262.541 134.88 263.181 132.11C264.361 126.957 265.547 121.803 266.741 116.65C267.235 113.854 268.17 111.153 269.511 108.65C270.991 106.23 273.511 104.25 276.271 104.14C279.031 104.03 281.961 106.31 281.871 109.14C281.705 110.308 281.461 111.464 281.141 112.6C280.99 113.167 281.01 113.766 281.196 114.322C281.383 114.879 281.729 115.368 282.191 115.73C283.191 116.32 284.501 115.8 285.521 115.18C289.031 113.07 291.821 109.94 294.471 106.79C297.121 103.64 299.741 100.41 303.051 97.98C306.361 95.55 310.501 93.98 314.511 94.7C318.521 95.42 322.151 98.86 322.231 102.97C322.311 107.08 319.111 110.52 315.891 113.08C311.136 116.88 305.858 119.975 300.221 122.27C299.155 122.567 298.212 123.198 297.531 124.07C296.531 125.77 297.801 128.01 299.471 129.07C301.371 130.24 303.651 130.56 305.751 131.32C307.851 132.08 309.951 133.59 310.281 135.81C310.741 138.9 307.681 141.3 304.901 142.69C299.333 145.457 293.333 147.249 287.161 147.99C284.951 148.25 282.661 148.4 280.681 149.43C278.701 150.46 277.131 152.72 277.681 154.9C278.231 157.08 280.601 158.31 282.821 158.41C285.041 158.51 287.221 157.82 289.431 157.54C293.561 157 298.431 158.42 300.051 162.28C300.532 163.592 300.701 164.998 300.545 166.386C300.389 167.775 299.911 169.108 299.151 170.28C297.628 172.593 295.656 174.575 293.351 176.11C285.626 181.906 276.503 185.55 266.911 186.67C257.391 187.67 249.031 186.53 241.041 181.26" fill="#F5F5F5"/>
<path d="M243.441 182.81C245.601 176.37 243.341 179.6 247.791 171.81C252.698 163.401 258.084 155.281 263.921 147.49C265.455 145.41 266.971 143.36 268.471 141.34C269.971 139.34 271.471 137.34 273.031 135.45C276.066 131.876 279.294 128.471 282.701 125.25C285.931 122.15 289.111 119.33 292.111 116.71C295.111 114.09 297.951 111.71 300.631 109.66C304.851 106.39 309.321 103.457 314.001 100.89C315.651 99.9799 317.001 99.3199 317.851 98.8899L318.851 98.3999L319.201 98.2499C319.098 98.3274 318.988 98.3944 318.871 98.4499L317.871 98.9899C316.991 99.4599 315.701 100.15 314.071 101.08C309.447 103.713 305.028 106.692 300.851 109.99C298.191 112.06 295.371 114.45 292.391 117.07C289.411 119.69 286.251 122.53 283.031 125.63C279.647 128.851 276.439 132.253 273.421 135.82C271.861 137.67 270.421 139.66 268.891 141.68L264.341 147.83C258.523 155.595 253.142 163.677 248.221 172.04C243.761 179.81 246.001 176.53 243.801 182.93" fill="#E0E0E0"/>
<path d="M273.22 135.47C273.179 135.058 273.179 134.642 273.22 134.23C273.22 133.43 273.35 132.23 273.48 130.86C273.74 128.01 274.24 124.1 274.8 119.79C275.36 115.48 275.8 111.57 276.01 108.73C276.12 107.32 276.2 106.17 276.25 105.37C276.246 104.956 276.29 104.544 276.38 104.14C276.446 104.55 276.469 104.965 276.45 105.38C276.45 106.17 276.45 107.38 276.38 108.75C276.26 111.61 275.88 115.54 275.31 119.86C274.74 124.18 274.24 127.96 273.85 130.86C273.68 132.19 273.54 133.31 273.43 134.21C273.407 134.636 273.337 135.059 273.22 135.47Z" fill="#E0E0E0"/>
<path d="M310.221 137.24C309.733 137.237 309.247 137.183 308.771 137.08C307.841 136.94 306.491 136.74 304.821 136.54C301.491 136.12 296.821 135.71 291.741 135.47C286.661 135.23 281.971 135.23 278.601 135.32C276.921 135.32 275.601 135.42 274.601 135.46C274.112 135.501 273.62 135.501 273.131 135.46C273.61 135.341 274.098 135.268 274.591 135.24C275.531 135.14 276.891 135.02 278.591 134.94C281.961 134.75 286.591 134.7 291.771 134.94C296.159 135.13 300.534 135.54 304.881 136.17C306.541 136.42 307.881 136.68 308.811 136.87C309.292 136.948 309.764 137.072 310.221 137.24Z" fill="#E0E0E0"/>
<path d="M248.381 171.25C248.308 171.095 248.261 170.93 248.241 170.76C248.161 170.37 248.061 169.9 247.931 169.33C247.681 168.09 247.351 166.33 246.981 164.05C246.231 159.58 245.391 153.37 244.551 146.5C243.711 139.63 242.931 133.42 242.281 128.94C241.961 126.76 241.691 124.94 241.491 123.64C241.411 123.06 241.341 122.58 241.281 122.19C241.266 122.02 241.266 121.85 241.281 121.68C241.353 121.836 241.404 122.001 241.431 122.17L241.731 123.6C241.991 124.84 242.311 126.6 242.681 128.88C243.431 133.35 244.271 139.56 245.111 146.43C245.951 153.3 246.731 159.51 247.381 163.99C247.711 166.17 247.971 167.99 248.171 169.3C248.261 169.87 248.321 170.35 248.381 170.74C248.403 170.909 248.403 171.081 248.381 171.25Z" fill="#E0E0E0"/>
<path d="M299.15 167.22C298.985 167.273 298.813 167.3 298.64 167.3L297.16 167.44L291.72 167.88C287.13 168.25 280.79 168.88 273.79 169.5C266.79 170.12 260.43 170.69 255.79 170.97C253.49 171.11 251.63 171.2 250.34 171.24H248.86C248.688 171.268 248.512 171.268 248.34 171.24C248.506 171.192 248.677 171.165 248.85 171.16L250.33 171.02L255.77 170.58C260.36 170.21 266.7 169.58 273.7 168.96C280.7 168.34 287.05 167.77 291.7 167.5C294.01 167.36 295.87 167.26 297.16 167.22H298.64C298.809 167.199 298.98 167.199 299.15 167.22Z" fill="#E0E0E0"/>
<path d="M338.53 268.99C338.495 269.152 338.442 269.31 338.37 269.46L337.82 270.79C337.31 271.99 336.59 273.68 335.69 275.79L327.98 293.62L327.93 293.72H327.82L303.6 297.72L295.48 299.05L295.11 299.11L295.2 298.75C297.2 290.96 298.99 283.75 300.54 277.7L300.65 277.93L286.42 271.57L282.49 269.78L281.49 269.3C281.37 269.249 281.256 269.185 281.15 269.11L281.51 269.24L282.56 269.67L286.56 271.36L300.86 277.56L301.02 277.63V277.79C299.5 283.89 297.71 291.07 295.77 298.87L295.49 298.57L303.61 297.23L327.84 293.29L327.67 293.42L335.54 275.67C336.49 273.55 337.25 271.87 337.79 270.67L338.39 269.36C338.43 269.234 338.476 269.11 338.53 268.99Z" fill="#E0E0E0"/>
<path d="M298.311 296.25L297.651 297.99L298.711 299.52L296.851 299.43L295.721 300.91L295.231 299.11L293.471 298.5L295.031 297.48L295.071 295.61L296.531 296.78L298.311 296.25Z" fill="#E0E0E0"/>
<path d="M281.681 267.99L281.352 268.86L281.882 269.62L280.961 269.58L280.392 270.31L280.151 269.42L279.271 269.11L280.051 268.6L280.072 267.68L280.801 268.26L281.681 267.99Z" fill="#E0E0E0"/>
<path d="M328.65 292.56L328.32 293.43L328.85 294.19L327.93 294.14L327.36 294.88L327.12 293.99L326.25 293.68L327.02 293.17L327.04 292.24L327.77 292.82L328.65 292.56Z" fill="#E0E0E0"/>
<path d="M301.551 276.96L301.221 277.83L301.751 278.59L300.821 278.55L300.261 279.28L300.021 278.39L299.141 278.08L299.921 277.57L299.941 276.65L300.661 277.23L301.551 276.96Z" fill="#E0E0E0"/>
<path d="M339.66 268.13L339.33 269L339.86 269.76L338.93 269.71L338.37 270.45L338.13 269.56L337.25 269.25L338.02 268.74L338.05 267.81L338.77 268.39L339.66 268.13Z" fill="#E0E0E0"/>
<path d="M36.5605 340.9H88.9205C88.9205 340.9 84.2905 332.47 70.8105 333.7C57.9405 334.87 57.2906 329.55 50.7406 328.9C44.1906 328.25 38.7505 333.26 36.5605 340.9Z" fill="#E0E0E0"/>
<path d="M46.9609 134.78H99.3109C99.3109 134.78 94.6809 126.36 81.2009 127.58C68.3409 128.76 67.6809 123.44 61.1409 122.79C54.6009 122.14 49.1409 127.15 46.9609 134.78Z" fill="#F5F5F5"/>
<path d="M312.84 171.19H355.84C355.84 171.19 352.04 164.27 340.97 165.27C330.39 166.27 329.85 161.87 324.48 161.33C319.11 160.79 314.63 164.92 312.84 171.19Z" fill="#F5F5F5"/>
<path d="M226.95 256.08C229.09 239.97 217.76 226.67 203.6 218.68C189.44 210.69 173.01 207.99 157.37 203.57C142.62 199.38 127.95 193.26 117.03 182.5C106.11 171.74 99.5496 155.57 103.47 140.75C104.47 137.03 106.22 133.29 109.42 131.14C112.62 128.99 117.49 129.05 119.88 132.07C124.96 138.51 115.06 150.07 121.26 155.41C122.68 156.65 124.64 157.1 126.11 158.27C130.02 161.4 128.76 167.47 129.31 172.45C130.4 182.3 139.64 189.14 148.71 193.13C160.86 198.47 174.02 200.98 186.9 204.13C199.78 207.28 212.79 211.29 223.52 219.13C234.25 226.97 243.58 239.13 243.52 252.42C243.52 256.13 243.03 260.69 240.7 263.57C238.37 266.45 235.41 267.06 232.05 265.48C228.69 263.9 226.35 261.48 226.97 256.1" fill="#15C993"/>
<g opacity="0.8">
<path d="M226.95 256.08C229.09 239.97 217.76 226.67 203.6 218.68C189.44 210.69 173.01 207.99 157.37 203.57C142.62 199.38 127.95 193.26 117.03 182.5C106.11 171.74 99.5496 155.57 103.47 140.75C104.47 137.03 106.22 133.29 109.42 131.14C112.62 128.99 117.49 129.05 119.88 132.07C124.96 138.51 115.06 150.07 121.26 155.41C122.68 156.65 124.64 157.1 126.11 158.27C130.02 161.4 128.76 167.47 129.31 172.45C130.4 182.3 139.64 189.14 148.71 193.13C160.86 198.47 174.02 200.98 186.9 204.13C199.78 207.28 212.79 211.29 223.52 219.13C234.25 226.97 243.58 239.13 243.52 252.42C243.52 256.13 243.03 260.69 240.7 263.57C238.37 266.45 235.41 267.06 232.05 265.48C228.69 263.9 226.35 261.48 226.97 256.1" fill="white"/>
</g>
<path d="M158.45 127.99C157.94 121.99 162.39 116.82 167.45 114.04C172.51 111.26 178.31 110.12 183.52 107.65C196.47 101.51 204.7 87.0601 205.31 72.2501C205.92 57.4401 199.49 42.6201 189.45 31.7401C185.36 27.3201 180.34 22.6801 180.28 16.6501C180.22 10.3501 186.28 5.39007 192.42 5.47007C198.56 5.55007 204.14 9.64007 207.79 14.7701C211.44 19.9001 213.45 25.9901 215.42 31.9901C214.02 29.4701 216.89 26.3601 219.67 26.6301C222.45 26.9001 224.67 29.2101 226.34 31.5101C233.738 41.5548 237.287 53.9208 236.34 66.3601C235.338 78.5674 229.81 89.9594 220.84 98.3001C210.97 107.3 197.92 111.51 185.26 115.51L158.85 123.84" fill="#15C993"/>
<g opacity="0.8">
<path d="M158.45 127.99C157.94 121.99 162.39 116.82 167.45 114.04C172.51 111.26 178.31 110.12 183.52 107.65C196.47 101.51 204.7 87.0601 205.31 72.2501C205.92 57.4401 199.49 42.6201 189.45 31.7401C185.36 27.3201 180.34 22.6801 180.28 16.6501C180.22 10.3501 186.28 5.39007 192.42 5.47007C198.56 5.55007 204.14 9.64007 207.79 14.7701C211.44 19.9001 213.45 25.9901 215.42 31.9901C214.02 29.4701 216.89 26.3601 219.67 26.6301C222.45 26.9001 224.67 29.2101 226.34 31.5101C233.738 41.5548 237.287 53.9208 236.34 66.3601C235.338 78.5674 229.81 89.9594 220.84 98.3001C210.97 107.3 197.92 111.51 185.26 115.51L158.85 123.84" fill="white"/>
</g>
<path d="M151.1 2.50998C149.76 3.06249 148.686 4.11083 148.101 5.43624C147.517 6.76164 147.466 8.26172 147.961 9.62344C148.455 10.9852 149.456 12.1033 150.755 12.7446C152.054 13.3859 153.551 13.5008 154.933 13.0652C156.314 12.6297 157.474 11.6774 158.171 10.4071C158.867 9.13678 159.046 7.64656 158.671 6.24743C158.295 4.84829 157.393 3.64831 156.154 2.8979C154.915 2.1475 153.434 1.90463 152.02 2.21998" fill="#15C993"/>
<g opacity="0.8">
<path d="M151.1 2.50998C149.76 3.06249 148.686 4.11083 148.101 5.43624C147.517 6.76164 147.466 8.26172 147.961 9.62344C148.455 10.9852 149.456 12.1033 150.755 12.7446C152.054 13.3859 153.551 13.5008 154.933 13.0652C156.314 12.6297 157.474 11.6774 158.171 10.4071C158.867 9.13678 159.046 7.64656 158.671 6.24743C158.295 4.84829 157.393 3.64831 156.154 2.8979C154.915 2.1475 153.434 1.90463 152.02 2.21998" fill="white"/>
</g>
<path d="M183.67 387.83C180.43 381.12 183.26 372.75 188.42 367.37C193.58 361.99 200.62 358.92 207.42 355.92C222.48 349.28 238.42 341.38 246.07 326.82C248.65 321.91 250.12 316.51 251.57 311.15C254.38 300.79 257.02 289.02 251.369 279.89C249.74 277.26 247.3 274.89 244.26 274.39C240.79 273.77 237.26 275.68 235.1 278.47C233.097 281.385 231.894 284.775 231.61 288.3C230.77 294.93 231.469 301.68 230.769 308.3C230.069 314.92 227.66 321.99 222.22 325.77C215.55 330.42 206.04 329.38 199.57 334.29C194.34 338.29 192.349 345.13 188.269 350.29C184.829 354.6 180.019 357.54 175.619 360.86C171.219 364.18 166.96 368.22 165.46 373.53C164.673 376.306 164.703 379.249 165.546 382.008C166.39 384.767 168.011 387.224 170.216 389.085C172.421 390.946 175.116 392.131 177.977 392.499C180.839 392.867 183.746 392.402 186.35 391.16" fill="#15C993"/>
<g opacity="0.8">
<path d="M183.67 387.83C180.43 381.12 183.26 372.75 188.42 367.37C193.58 361.99 200.62 358.92 207.42 355.92C222.48 349.28 238.42 341.38 246.07 326.82C248.65 321.91 250.12 316.51 251.57 311.15C254.38 300.79 257.02 289.02 251.369 279.89C249.74 277.26 247.3 274.89 244.26 274.39C240.79 273.77 237.26 275.68 235.1 278.47C233.097 281.385 231.894 284.775 231.61 288.3C230.77 294.93 231.469 301.68 230.769 308.3C230.069 314.92 227.66 321.99 222.22 325.77C215.55 330.42 206.04 329.38 199.57 334.29C194.34 338.29 192.349 345.13 188.269 350.29C184.829 354.6 180.019 357.54 175.619 360.86C171.219 364.18 166.96 368.22 165.46 373.53C164.673 376.306 164.703 379.249 165.546 382.008C166.39 384.767 168.011 387.224 170.216 389.085C172.421 390.946 175.116 392.131 177.977 392.499C180.839 392.867 183.746 392.402 186.35 391.16" fill="white"/>
</g>
<path d="M83.5498 48.85C80.8872 46.8732 78.7346 44.2897 77.2706 41.314C75.8066 38.3384 75.0735 35.0565 75.1322 31.7408C75.1908 28.425 76.0396 25.1711 77.6079 22.2492C79.1762 19.3272 81.4189 16.8215 84.1498 14.94C87.2298 12.83 90.8698 11.53 93.6098 8.94004C96.0398 6.68004 97.6098 3.55004 100.34 1.65004C102.044 0.441833 104.089 -0.190437 106.177 -0.154559C108.265 -0.118681 110.288 0.58347 111.949 1.84948C113.61 3.1155 114.823 4.87915 115.412 6.88321C116 8.88727 115.933 11.0269 115.22 12.99C113.97 16.5 110.82 19.07 109.5 22.55C108.08 26.31 109 30.55 108.5 34.49C108.173 36.9431 107.297 39.291 105.939 41.3597C104.581 43.4284 102.774 45.1649 100.654 46.4404C98.533 47.7159 96.1524 48.4977 93.6884 48.7279C91.2243 48.9581 88.7401 48.6307 86.4198 47.77" fill="#15C993"/>
<g opacity="0.8">
<path d="M83.5498 48.85C80.8872 46.8732 78.7346 44.2897 77.2706 41.314C75.8066 38.3384 75.0735 35.0565 75.1322 31.7408C75.1908 28.425 76.0396 25.1711 77.6079 22.2492C79.1762 19.3272 81.4189 16.8215 84.1498 14.94C87.2298 12.83 90.8698 11.53 93.6098 8.94004C96.0398 6.68004 97.6098 3.55004 100.34 1.65004C102.044 0.441833 104.089 -0.190437 106.177 -0.154559C108.265 -0.118681 110.288 0.58347 111.949 1.84948C113.61 3.1155 114.823 4.87915 115.412 6.88321C116 8.88727 115.933 11.0269 115.22 12.99C113.97 16.5 110.82 19.07 109.5 22.55C108.08 26.31 109 30.55 108.5 34.49C108.173 36.9431 107.297 39.291 105.939 41.3597C104.581 43.4284 102.774 45.1649 100.654 46.4404C98.533 47.7159 96.1524 48.4977 93.6884 48.7279C91.2243 48.9581 88.7401 48.6307 86.4198 47.77" fill="white"/>
</g>
<path d="M83.9297 27.41H96.2197V52.74C96.2197 53.4505 96.0798 54.154 95.8079 54.8104C95.536 55.4667 95.1375 56.0631 94.6351 56.5655C94.1328 57.0678 93.5364 57.4663 92.88 57.7382C92.2236 58.0101 91.5201 58.15 90.8097 58.15H89.3397C87.9049 58.15 86.5288 57.5801 85.5142 56.5655C84.4997 55.5509 83.9297 54.1749 83.9297 52.74V27.41Z" fill="#15C993"/>
<path d="M83.9297 27.41L90.0697 16.14L96.2197 27.41H83.9297Z" fill="#FFBE9D"/>
<path d="M87.6406 20.6C87.6406 20.6 89.5106 23.41 92.5106 20.6L90.0806 16.14L87.6406 20.6Z" fill="#15C993"/>
<path d="M96.3904 51.51C94.3171 51.7605 92.2271 51.8441 90.1404 51.76C88.0571 51.8442 85.9703 51.7606 83.9004 51.51C85.9703 51.2594 88.0571 51.1758 90.1404 51.26C92.2271 51.1759 94.3171 51.2595 96.3904 51.51Z" fill="#263238"/>
<path d="M96.2205 49.62C94.1907 49.8705 92.1439 49.9541 90.1005 49.87C88.0571 49.9541 86.0102 49.8705 83.9805 49.62C86.0112 49.3821 88.0573 49.3019 90.1005 49.38C92.1436 49.3019 94.1897 49.3821 96.2205 49.62Z" fill="#263238"/>
<path d="M87.5391 27.5901C87.6691 27.5901 87.7891 32.4901 87.7891 38.5401C87.7891 44.5901 87.6691 49.5401 87.5391 49.5401C87.4091 49.5401 87.2891 44.6301 87.2891 38.5401C87.2891 32.4501 87.3991 27.5901 87.5391 27.5901Z" fill="#FAFAFA"/>
<path d="M92.5098 27.5901C92.6498 27.5901 92.7598 32.4901 92.7598 38.5401C92.7598 44.5901 92.6498 49.5401 92.5098 49.5401C92.3698 49.5401 92.2598 44.6301 92.2598 38.5401C92.2598 32.4501 92.3698 27.5901 92.5098 27.5901Z" fill="#FAFAFA"/>
<path d="M190.7 373.71L246.54 376.1L247.88 379.35L211.29 438.75L145.23 436.82L190.7 373.71Z" fill="#263238"/>
<path d="M142.721 431.03L209.181 434.83L243.901 380.96L219.521 382.94L157.831 404.67L142.721 431.03Z" fill="#E0E0E0"/>
<path d="M133.39 427.04L194.39 428.04C191.86 420.23 197.83 409.24 206.04 405.54C211.48 403.09 221.71 399.91 226.99 397.2C236.99 392.05 246.09 382.31 245.3 373.94L220.22 373.11L188.22 371.87C185.54 379.81 179.82 385 171.12 388.13C163.34 390.93 154.48 390.92 146.88 394.13C134.66 399.25 128.79 415.84 133.34 427.07" fill="#EBEBEB"/>
<path d="M133.39 427.04C133.39 427.04 133.33 426.91 133.24 426.64L132.82 425.47C132.599 424.817 132.425 424.148 132.3 423.47C132.096 422.554 131.956 421.625 131.88 420.69C131.414 414.553 132.958 408.431 136.28 403.25C136.811 402.393 137.395 401.572 138.03 400.79C138.36 400.4 138.68 399.97 139.03 399.59L140.16 398.44C140.538 398.046 140.946 397.681 141.38 397.35C141.81 397 142.23 396.63 142.69 396.3C143.643 395.63 144.646 395.035 145.69 394.52C149.92 392.39 154.97 391.52 160.23 390.52C162.87 390.04 165.59 389.52 168.31 388.79C171.109 388.023 173.81 386.935 176.36 385.55C177.677 384.837 178.932 384.014 180.11 383.09C181.325 382.156 182.44 381.101 183.44 379.94C185.511 377.546 187.088 374.766 188.08 371.76L188.14 371.59H188.31L214.96 372.59C224.21 372.95 233.78 373.2 243.58 373.53L245.36 373.59H245.58V373.81C245.714 375.725 245.442 377.647 244.78 379.45C244.465 380.34 244.091 381.209 243.66 382.05C243.219 382.877 242.731 383.678 242.2 384.45C240.092 387.477 237.544 390.174 234.64 392.45C231.833 394.685 228.768 396.575 225.51 398.08C222.29 399.53 219.03 400.71 215.84 401.89C212.65 403.07 209.49 404.19 206.5 405.49C205.028 406.142 203.647 406.983 202.39 407.99C201.74 408.45 201.2 409.04 200.61 409.55C200.02 410.06 199.51 410.68 199.04 411.31C197.095 413.663 195.642 416.384 194.77 419.31C193.888 422.081 193.836 425.05 194.62 427.85L194.71 428.12H194.43L150.04 427.34L137.74 427.09L134.51 427H133.4C133.4 427 133.78 427 134.51 427H137.74L150.05 427.14L194.43 427.76L194.24 428.02C193.419 425.144 193.464 422.09 194.37 419.24C195.241 416.246 196.714 413.463 198.7 411.06C199.17 410.42 199.76 409.87 200.29 409.27C200.82 408.67 201.45 408.14 202.11 407.66C203.391 406.627 204.803 405.769 206.31 405.11C209.31 403.79 212.49 402.66 215.68 401.48C218.87 400.3 222.12 399.11 225.31 397.67C228.527 396.184 231.549 394.31 234.31 392.09C237.176 389.849 239.69 387.193 241.77 384.21C242.293 383.462 242.777 382.687 243.22 381.89C243.639 381.071 244.003 380.226 244.31 379.36C244.948 377.624 245.213 375.775 245.09 373.93L245.33 374.15L243.54 374.1C233.74 373.77 224.17 373.51 214.93 373.1L188.27 372.1L188.5 371.94C187.48 375 185.87 377.83 183.76 380.27C182.74 381.45 181.6 382.522 180.36 383.47C179.162 384.41 177.884 385.243 176.54 385.96C173.964 387.361 171.232 388.455 168.4 389.22C165.65 389.97 162.92 390.47 160.28 390.94C155.02 391.88 149.99 392.76 145.82 394.84C144.8 395.342 143.82 395.924 142.89 396.58C142.43 396.9 142.02 397.27 141.59 397.58C141.159 397.908 140.755 398.269 140.38 398.66L139.22 399.81C138.86 400.19 138.55 400.61 138.22 401C137.583 401.766 136.999 402.575 136.47 403.42C134.588 406.348 133.257 409.594 132.54 413C132.003 415.529 131.818 418.12 131.99 420.7C132.05 421.631 132.177 422.557 132.37 423.47C132.482 424.147 132.642 424.816 132.85 425.47C133.02 425.99 133.14 426.38 133.23 426.66C133.32 426.94 133.39 427.04 133.39 427.04Z" fill="#263238"/>
<path d="M205.411 372.86C205.411 372.86 205.491 372.47 205.551 371.77C205.624 370.785 205.46 369.798 205.071 368.89C204.526 367.537 203.5 366.432 202.191 365.79C201.388 365.416 200.518 365.208 199.633 365.177C198.748 365.146 197.866 365.294 197.04 365.611C196.213 365.928 195.459 366.409 194.821 367.024C194.184 367.638 193.677 368.375 193.331 369.19C192.718 370.517 192.513 371.996 192.741 373.44C192.886 374.411 193.226 375.343 193.741 376.18C194.121 376.78 194.401 377.06 194.371 377.09C194.061 376.877 193.796 376.605 193.591 376.29C192.971 375.467 192.551 374.512 192.361 373.5C192.064 371.983 192.242 370.412 192.871 369C193.236 368.124 193.776 367.331 194.457 366.671C195.139 366.01 195.947 365.494 196.834 365.156C197.721 364.817 198.667 364.662 199.615 364.701C200.564 364.74 201.494 364.971 202.351 365.38C203.743 366.086 204.815 367.294 205.351 368.76C205.725 369.713 205.842 370.747 205.691 371.76C205.651 372.036 205.584 372.307 205.491 372.57C205.471 372.78 205.431 372.86 205.411 372.86Z" fill="#263238"/>
<path d="M214.98 372.86C214.93 372.86 215.06 372.47 215.12 371.77C215.189 370.786 215.024 369.799 214.64 368.89C214.091 367.536 213.062 366.433 211.75 365.79C210.948 365.418 210.078 365.21 209.193 365.18C208.309 365.15 207.427 365.298 206.601 365.615C205.775 365.932 205.02 366.412 204.383 367.026C203.746 367.64 203.238 368.376 202.89 369.19C202.281 370.518 202.079 371.997 202.31 373.44C202.451 374.413 202.792 375.346 203.31 376.18C203.69 376.78 203.97 377.06 203.94 377.09C203.623 376.882 203.354 376.61 203.15 376.29C202.535 375.465 202.115 374.511 201.92 373.5C201.632 371.982 201.814 370.412 202.44 369C202.806 368.125 203.345 367.334 204.026 366.674C204.707 366.014 205.514 365.499 206.4 365.161C207.285 364.822 208.23 364.667 209.178 364.705C210.125 364.742 211.055 364.972 211.91 365.38C213.303 366.086 214.375 367.294 214.91 368.76C215.281 369.714 215.401 370.747 215.26 371.76C215.223 372.037 215.152 372.309 215.05 372.57C215.048 372.671 215.024 372.769 214.98 372.86Z" fill="#263238"/>
<path d="M222.221 373.36C222.221 373.36 222.281 372.96 222.301 372.26C222.316 371.273 222.097 370.296 221.661 369.41C221.035 368.093 219.945 367.053 218.601 366.49C217.78 366.165 216.903 366.007 216.021 366.024C215.138 366.041 214.268 366.234 213.461 366.59C211.836 367.335 210.573 368.694 209.951 370.37C209.415 371.731 209.293 373.22 209.601 374.65C209.811 375.617 210.22 376.529 210.801 377.33C211.211 377.9 211.511 378.17 211.481 378.2C211.154 378.011 210.871 377.756 210.651 377.45C209.986 376.661 209.51 375.731 209.261 374.73C208.885 373.232 208.976 371.655 209.521 370.21C209.836 369.315 210.33 368.493 210.973 367.795C211.616 367.096 212.394 366.536 213.26 366.148C214.126 365.76 215.062 365.552 216.011 365.537C216.96 365.522 217.903 365.7 218.781 366.06C220.211 366.687 221.354 367.829 221.981 369.26C222.408 370.199 222.584 371.233 222.491 372.26C222.47 372.539 222.416 372.814 222.331 373.08C222.301 373.27 222.221 373.36 222.221 373.36Z" fill="#263238"/>
<path d="M230.031 373.8C230.031 373.8 230.031 373.4 230.031 372.7C229.998 371.713 229.727 370.749 229.241 369.89C228.549 368.605 227.405 367.621 226.031 367.13C225.193 366.847 224.307 366.735 223.425 366.801C222.543 366.867 221.683 367.11 220.897 367.515C220.11 367.919 219.413 368.478 218.847 369.158C218.281 369.837 217.857 370.624 217.601 371.47C217.135 372.856 217.094 374.35 217.481 375.76C217.744 376.716 218.2 377.607 218.821 378.38C219.261 378.92 219.571 379.17 219.541 379.21C219.206 379.035 218.91 378.793 218.671 378.5C217.968 377.747 217.445 376.844 217.141 375.86C216.68 374.385 216.68 372.805 217.141 371.33C217.409 370.423 217.858 369.58 218.462 368.851C219.065 368.123 219.81 367.524 220.651 367.091C221.492 366.658 222.412 366.401 223.356 366.333C224.299 366.266 225.247 366.391 226.141 366.7C227.597 367.243 228.796 368.314 229.501 369.7C229.985 370.623 230.216 371.658 230.171 372.7C230.161 372.976 230.125 373.251 230.061 373.52C230.081 373.71 230.051 373.8 230.031 373.8Z" fill="#263238"/>
<path d="M237.831 373.62C237.831 373.62 237.831 373.22 237.831 372.52C237.77 371.534 237.472 370.576 236.961 369.73C236.233 368.467 235.065 367.517 233.681 367.06C232.835 366.798 231.944 366.71 231.063 366.8C230.182 366.89 229.328 367.157 228.553 367.584C227.777 368.012 227.095 368.591 226.549 369.288C226.002 369.985 225.601 370.785 225.371 371.64C225.011 372.812 224.952 374.055 225.198 375.255C225.445 376.456 225.989 377.575 226.781 378.51C227.241 379.04 227.561 379.28 227.531 379.31C227.188 379.155 226.885 378.926 226.641 378.64C225.921 377.903 225.374 377.015 225.041 376.04C224.543 374.577 224.504 372.996 224.931 371.51C225.177 370.594 225.603 369.736 226.185 368.987C226.767 368.239 227.494 367.614 228.321 367.15C229.154 366.695 230.072 366.414 231.017 366.325C231.963 366.235 232.917 366.339 233.821 366.63C235.296 367.136 236.528 368.179 237.271 369.55C237.782 370.466 238.041 371.501 238.021 372.55C238.02 372.829 237.99 373.107 237.931 373.38C237.881 373.52 237.851 373.62 237.831 373.62Z" fill="#263238"/>
<path d="M244.409 374.49C244.409 374.49 244.409 374.09 244.409 373.39C244.388 372.402 244.127 371.435 243.649 370.57C242.971 369.282 241.843 368.289 240.48 367.78C239.645 367.486 238.76 367.362 237.877 367.417C236.994 367.472 236.131 367.704 235.34 368.1C234.548 368.496 233.845 369.047 233.271 369.72C232.697 370.394 232.265 371.176 231.999 372.02C231.597 373.176 231.489 374.415 231.686 375.623C231.883 376.832 232.38 377.972 233.129 378.94C233.569 379.49 233.869 379.74 233.849 379.78C233.516 379.602 233.223 379.357 232.989 379.06C232.291 378.301 231.777 377.391 231.489 376.4C231.049 374.918 231.073 373.337 231.559 371.87C231.84 370.964 232.3 370.124 232.911 369.399C233.523 368.674 234.274 368.079 235.119 367.65C235.971 367.228 236.9 366.984 237.849 366.932C238.798 366.88 239.747 367.023 240.64 367.35C242.095 367.91 243.282 369.005 243.959 370.41C244.435 371.336 244.656 372.371 244.599 373.41C244.588 373.687 244.548 373.961 244.48 374.23C244.46 374.4 244.429 374.5 244.409 374.49Z" fill="#263238"/>
<path d="M273.22 169.64C270.458 169.557 267.693 169.684 264.95 170.02C256.627 171.091 248.983 175.169 243.457 181.484C237.931 187.8 234.906 195.918 234.95 204.31C234.921 209.831 235.637 215.331 237.08 220.66C241.89 237.72 243.37 252.75 242.82 260.08L258.92 268.73C258.92 268.73 266.37 258.02 273.57 253.4C280.77 248.78 304.73 236.4 314.22 223.75C320.33 215.57 321.51 198.75 306.93 184.09C297.962 175.129 285.894 169.955 273.22 169.64Z" fill="#15C993"/>
<path d="M235.12 278.7L249.66 286.56L240.19 298.59L230.5 294.18L235.12 278.7Z" fill="#455A64"/>
<path d="M235.83 279.19C235.7 279.14 237.14 274.82 239.05 269.55C240.96 264.28 242.61 260.03 242.74 260.08C242.87 260.13 241.43 264.44 239.52 269.72C237.61 275 235.96 279.23 235.83 279.19Z" fill="#263238"/>
<path d="M248.751 285.99C248.631 285.92 250.911 281.84 253.831 276.88C256.751 271.92 259.221 267.99 259.351 267.99C259.481 267.99 257.191 272.14 254.261 277.1C251.331 282.06 248.861 286.04 248.751 285.99Z" fill="#263238"/>
<g opacity="0.4">
<path d="M278.02 170.1C277.37 170.1 269.37 179.5 265.83 185.84C253.92 207.17 253.38 227.92 250.08 252.12C249.61 255.58 247.89 263.03 247.92 262.86C249.68 264.24 255.6 266.99 255.6 266.99C255.6 266.99 261.19 260.25 263.41 256.86C272.29 243.29 281.94 232.7 289.55 218.37C297.16 204.04 304.48 191.37 297.44 176.71C297.44 176.71 285.22 169.69 278.02 170.1Z" fill="black"/>
</g>
<path d="M314.219 225.89C314.135 225.744 314.065 225.59 314.009 225.43C313.879 225.13 313.719 224.66 313.449 224.08C312.696 222.402 311.753 220.815 310.639 219.35C308.93 217.089 306.843 215.14 304.469 213.59C301.428 211.574 297.96 210.291 294.339 209.84H294.219L294.159 209.76C292.216 207.091 290.044 204.595 287.669 202.3C285.07 199.791 282.072 197.73 278.799 196.2C275.511 194.712 271.915 194.027 268.309 194.2C265.024 194.329 261.844 195.39 259.139 197.26L258.989 197.36L258.859 197.24C256.111 194.828 252.692 193.311 249.059 192.89C246.238 192.569 243.381 192.933 240.729 193.95C239.013 194.607 237.402 195.513 235.949 196.64C235.449 197.04 235.069 197.36 234.829 197.58C234.71 197.7 234.58 197.807 234.439 197.9C234.546 197.77 234.659 197.647 234.779 197.53C235.009 197.29 235.369 196.95 235.859 196.53C237.292 195.339 238.906 194.384 240.639 193.7C243.325 192.623 246.232 192.218 249.109 192.52C252.83 192.921 256.337 194.453 259.159 196.91H258.879C261.65 194.978 264.915 193.878 268.289 193.74C271.967 193.552 275.637 194.237 278.999 195.74C282.324 197.295 285.366 199.394 287.999 201.95C290.394 204.267 292.576 206.794 294.519 209.5L294.369 209.41C298.053 209.88 301.574 211.209 304.649 213.29C307.041 214.885 309.136 216.885 310.839 219.2C311.94 220.696 312.854 222.322 313.559 224.04C313.819 224.63 313.949 225.11 314.059 225.42C314.123 225.573 314.176 225.73 314.219 225.89Z" fill="#263238"/>
<path d="M284.281 247.14C284.034 245.902 283.563 244.719 282.891 243.65C282.104 242.427 281.047 241.4 279.801 240.65C278.208 239.664 276.337 239.222 274.471 239.39H274.271V239.19C273.88 236.796 272.884 234.542 271.377 232.641C269.87 230.74 267.903 229.256 265.661 228.33C263.674 227.553 261.539 227.229 259.411 227.38C257.456 227.522 255.552 228.07 253.821 228.99L253.671 229.07L253.551 228.94C252.054 227.371 250.096 226.32 247.961 225.94C246.303 225.618 244.595 225.673 242.961 226.1C241.512 226.504 240.154 227.183 238.961 228.1C238.961 228.1 239.021 228.01 239.171 227.88C239.321 227.75 239.541 227.54 239.851 227.31C240.764 226.664 241.778 226.174 242.851 225.86C244.525 225.378 246.287 225.289 248.001 225.6C250.234 225.969 252.288 227.053 253.851 228.69L253.581 228.64C255.359 227.696 257.313 227.13 259.321 226.98C261.522 226.826 263.73 227.167 265.781 227.98C268.249 228.977 270.387 230.647 271.951 232.8C273.358 234.691 274.279 236.899 274.631 239.23L274.401 239.05C276.353 238.897 278.301 239.385 279.951 240.44C281.217 241.231 282.285 242.301 283.071 243.57C283.572 244.383 283.931 245.276 284.131 246.21C284.181 246.454 284.218 246.701 284.241 246.95C284.26 247.012 284.273 247.076 284.281 247.14Z" fill="#263238"/>
<path d="M246.85 290.35C246.85 290.35 246.69 290.15 246.32 289.99C245.763 289.821 245.165 289.842 244.62 290.05C244.202 290.181 243.769 290.259 243.33 290.28C243.06 290.278 242.793 290.221 242.546 290.112C242.299 290.004 242.076 289.847 241.89 289.65C241.12 288.84 240.83 287.65 240.1 286.88C239.934 286.691 239.727 286.541 239.495 286.442C239.263 286.344 239.012 286.298 238.76 286.31C238.245 286.366 237.736 286.47 237.24 286.62C236.746 286.761 236.227 286.788 235.72 286.7C235.188 286.568 234.704 286.289 234.324 285.895C233.944 285.5 233.683 285.006 233.57 284.47C233.503 284.248 233.503 284.012 233.57 283.79C233.57 283.79 233.57 284.03 233.74 284.43C233.928 284.982 234.277 285.466 234.74 285.82C235.045 286.063 235.406 286.225 235.79 286.29C236.237 286.35 236.692 286.309 237.12 286.17C237.644 286.002 238.184 285.888 238.73 285.83C239.052 285.811 239.374 285.865 239.672 285.988C239.969 286.111 240.236 286.3 240.45 286.54C241.3 287.54 241.56 288.64 242.21 289.33C242.498 289.651 242.9 289.845 243.33 289.87C243.733 289.865 244.133 289.808 244.52 289.7C245.137 289.508 245.803 289.551 246.39 289.82C246.81 290.06 246.87 290.35 246.85 290.35Z" fill="#263238"/>
<path d="M248.521 287.99C246.085 286.977 243.716 285.808 241.431 284.49C239.062 283.318 236.768 282.002 234.561 280.55C236.997 281.569 239.368 282.738 241.661 284.05C244.025 285.224 246.316 286.539 248.521 287.99Z" fill="#263238"/>
<path d="M245.629 291.68C245.629 291.68 245.429 291.78 245.079 291.94C244.899 292.02 244.699 292.14 244.419 292.26C244.099 292.372 243.758 292.416 243.419 292.39C242.541 292.342 241.701 292.016 241.019 291.46C240.621 291.122 240.309 290.693 240.109 290.21C239.946 289.737 239.706 289.295 239.399 288.9C239.038 288.596 238.618 288.372 238.165 288.241C237.712 288.11 237.236 288.076 236.769 288.14C235.918 288.24 235.056 288.158 234.239 287.9C233.68 287.687 233.222 287.268 232.959 286.73C232.799 286.34 232.859 286.09 232.879 286.1C232.899 286.11 232.939 286.32 233.139 286.64C233.429 287.083 233.864 287.412 234.369 287.57C235.147 287.765 235.957 287.803 236.749 287.68C237.283 287.602 237.828 287.64 238.346 287.792C238.863 287.943 239.342 288.206 239.749 288.56C240.088 288.997 240.351 289.487 240.529 290.01C240.698 290.434 240.962 290.813 241.299 291.12C241.905 291.627 242.645 291.947 243.429 292.04C243.965 292.088 244.504 291.992 244.989 291.76C245.399 291.65 245.629 291.65 245.629 291.68Z" fill="#263238"/>
<path d="M135.841 198.29L160.991 194.56L148.991 177.56L142.551 177.94C140.423 178.063 138.371 178.775 136.624 179.997C134.878 181.219 133.506 182.903 132.661 184.86C131.748 186.983 131.494 189.331 131.931 191.6L135.841 198.29Z" fill="#15C993"/>
<path opacity="0.4" d="M135.841 198.29L160.991 194.56L148.991 177.56L142.551 177.94C140.423 178.063 138.371 178.775 136.624 179.997C134.878 181.219 133.506 182.903 132.661 184.86C131.748 186.983 131.494 189.331 131.931 191.6L135.841 198.29Z" fill="black"/>
<path d="M243.862 226.15C244.122 226.87 244.402 227.72 244.692 228.74C244.931 229.619 245.022 230.531 244.962 231.44C244.922 232.567 244.73 233.684 244.392 234.76C243.982 235.76 244.942 236.68 245.752 236.2C246.562 235.72 247.752 233.12 247.752 229.78C247.752 226.44 251.092 230.44 252.362 231.88C253.632 233.32 257.772 237.59 258.522 237.55C259.622 237.49 259.762 236.3 258.462 234.89C257.162 233.48 253.552 228.99 254.342 228.35C255.132 227.71 261.492 235.14 261.492 235.14C261.492 235.14 262.592 236.95 263.492 236.25C265.192 234.98 257.842 227.59 257.122 226.91C256.632 226.43 257.462 225.71 257.972 226.25C258.482 226.79 264.152 233.8 265.892 232.52C267.222 231.52 259.892 226.39 259.532 224.29C259.172 222.19 264.692 228.76 265.922 227.78C266.392 227.41 266.682 227.07 262.922 223.78C261.122 222.16 254.262 217.36 254.262 217.36L233.622 158.27L217.682 167.4L243.862 226.15Z" fill="#FFBE9D"/>
<path d="M120.991 114.39L97.9308 86.87C97.64 85.9204 97.2617 84.9998 96.8008 84.12C96.2659 83.0221 95.5046 82.05 94.567 81.2675C93.6294 80.4849 92.5367 79.9099 91.3608 79.58C89.9008 79.26 88.2208 79.42 87.0708 78.46C86.5608 78.03 86.2208 77.46 85.6808 77.02C85.1408 76.58 84.2508 76.54 83.9008 77.11C83.811 77.3324 83.7733 77.5724 83.7906 77.8116C83.8079 78.0508 83.8798 78.2829 84.0008 78.49C84.8669 80.5262 86.2448 82.3037 88.0008 83.65C85.8408 84.31 82.7508 85.31 82.7508 85.31C82.7508 85.31 77.8808 80.02 75.3808 80.03C72.8808 80.04 77.3808 84.76 77.3808 84.76C77.3808 84.76 73.3808 81.06 72.1408 82.1C70.9008 83.14 74.0808 85.89 74.0808 85.89C73.1256 85.2406 71.9844 84.9211 70.8308 84.98C69.7008 85.17 68.7308 86.5 69.3408 87.47C69.601 87.8196 69.9449 88.0981 70.3408 88.28L76.4808 91.7C77.4633 92.355 78.5877 92.7663 79.7608 92.9C82.8808 93 85.2508 91.07 88.3608 91.15C88.3608 91.15 105.751 127.76 107.511 129.65C109.271 131.54 147.511 134.11 147.511 134.11L169.621 115.06L120.991 114.39Z" fill="#FFBE9D"/>
<path d="M190.271 313.82L213.822 324.07L201.221 353.44C198.481 352.07 199.382 334.44 199.382 334.44L184.021 328.49L190.271 313.82Z" fill="#15C993"/>
<g opacity="0.6">
<path d="M201.991 324.83C202.198 324.583 202.489 324.42 202.808 324.374C203.128 324.328 203.453 324.401 203.721 324.58C203.973 324.779 204.139 325.068 204.185 325.385C204.232 325.703 204.155 326.027 203.971 326.29C203.753 326.55 203.445 326.719 203.109 326.765C202.773 326.811 202.432 326.731 202.151 326.54C201.906 326.307 201.762 325.987 201.749 325.649C201.736 325.311 201.855 324.982 202.081 324.73" fill="white"/>
</g>
<path opacity="0.6" d="M213.821 324.07L211.401 323.13L200.221 351.64C200.221 351.64 200.221 353.2 201.221 353.44L213.821 324.07Z" fill="white"/>
<path d="M199.01 334.87C199.16 334.92 199.53 334.23 200.3 333.73C201.07 333.23 201.82 333.1 201.82 332.95C201.82 332.8 200.9 332.65 199.99 333.28C199.08 333.91 198.87 334.84 199.01 334.87Z" fill="#263238"/>
<path d="M198.96 338.49C199.09 338.59 199.601 338.07 200.421 337.84C201.241 337.61 201.93 337.75 201.99 337.61C202.05 337.47 201.27 337.02 200.26 337.32C199.25 337.62 198.83 338.43 198.96 338.49Z" fill="#263238"/>
<path d="M201.9 341.83C201.99 341.71 201.35 341.2 200.41 341.23C199.47 341.26 198.87 341.8 198.96 341.91C199.05 342.02 199.65 341.79 200.43 341.78C201.21 341.77 201.82 341.99 201.9 341.83Z" fill="#263238"/>
<path d="M195.661 333.12C195.821 333.12 195.901 332.37 196.311 331.59C196.721 330.81 197.241 330.28 197.151 330.15C197.061 330.02 196.281 330.41 195.821 331.34C195.361 332.27 195.521 333.14 195.661 333.12Z" fill="#263238"/>
<path d="M192.481 330.92C192.541 330.92 192.871 330.42 193.101 329.45C193.239 328.88 193.302 328.296 193.291 327.71C193.287 327.375 193.26 327.041 193.211 326.71C193.189 326.506 193.135 326.307 193.051 326.12C192.991 325.983 192.886 325.87 192.754 325.799C192.621 325.728 192.469 325.704 192.321 325.73C192.19 325.756 192.067 325.813 191.962 325.896C191.858 325.98 191.775 326.088 191.721 326.21C191.64 326.398 191.587 326.597 191.561 326.8C191.401 327.734 191.48 328.694 191.791 329.59C192.121 330.54 192.561 331 192.611 330.96C192.661 330.92 192.381 330.39 192.151 329.48C192.027 328.946 191.97 328.398 191.981 327.85C191.989 327.515 192.022 327.18 192.081 326.85C192.131 326.51 192.241 326.24 192.421 326.22C192.601 326.2 192.501 326.22 192.571 326.32C192.625 326.462 192.661 326.61 192.681 326.76C192.738 327.091 192.775 327.425 192.791 327.76C192.821 328.311 192.798 328.864 192.721 329.41C192.607 329.907 192.527 330.412 192.481 330.92Z" fill="#263238"/>
<path d="M192.761 330.83C192.761 330.83 192.421 330.28 191.511 329.83C190.977 329.569 190.402 329.403 189.811 329.34C189.478 329.303 189.143 329.303 188.811 329.34C188.582 329.338 188.357 329.393 188.156 329.502C187.955 329.61 187.784 329.768 187.661 329.96C187.609 330.093 187.596 330.237 187.623 330.376C187.649 330.516 187.714 330.646 187.811 330.75C187.953 330.898 188.114 331.025 188.291 331.13C188.6 331.323 188.938 331.468 189.291 331.56C189.875 331.705 190.486 331.705 191.071 331.56C192.071 331.31 192.511 330.79 192.471 330.76C191.989 330.928 191.498 331.068 191.001 331.18C190.472 331.256 189.932 331.215 189.421 331.06C189.124 330.966 188.841 330.831 188.581 330.66C188.291 330.48 188.091 330.26 188.171 330.16C188.257 330.06 188.365 329.98 188.486 329.926C188.607 329.872 188.738 329.846 188.871 329.85C189.203 329.818 189.538 329.818 189.871 329.85C190.414 329.888 190.949 330.002 191.461 330.19C192.221 330.51 192.711 330.9 192.761 330.83Z" fill="#263238"/>
<path d="M172.131 354.16L181.871 374.57L184.921 392.99C184.973 393.303 185.088 393.603 185.261 393.869C185.433 394.136 185.659 394.364 185.923 394.539C186.188 394.715 186.486 394.834 186.799 394.889C187.111 394.944 187.432 394.934 187.741 394.86C188.101 394.777 188.435 394.608 188.715 394.368C188.996 394.127 189.214 393.823 189.351 393.48C191.141 389.05 197.651 372.7 196.851 371.25C195.931 369.57 188.001 349.04 188.001 349.04L172.131 354.16Z" fill="#15C993"/>
<path opacity="0.6" d="M187.74 394.81L196.22 369.81L196.62 370.68C196.96 371.435 197.02 372.285 196.79 373.08C196.17 375.21 194.34 381.08 189.41 393.4C189.271 393.755 189.045 394.07 188.753 394.316C188.462 394.562 188.114 394.732 187.74 394.81Z" fill="white"/>
<g opacity="0.6">
<path d="M189.001 365.06C188.83 365.359 188.777 365.711 188.851 366.047C188.925 366.383 189.121 366.68 189.401 366.88C189.695 367.062 190.048 367.124 190.387 367.053C190.725 366.982 191.024 366.784 191.221 366.5C191.397 366.18 191.449 365.807 191.368 365.451C191.287 365.096 191.078 364.782 190.781 364.57C190.455 364.412 190.081 364.387 189.737 364.501C189.393 364.615 189.108 364.859 188.941 365.18" fill="white"/>
</g>
<path d="M188.401 383.68C187.644 383.193 186.77 382.919 185.871 382.887C184.971 382.856 184.08 383.067 183.291 383.5C183.291 383.5 183.441 383.18 183.891 382.9C184.493 382.537 185.189 382.36 185.891 382.39C186.589 382.411 187.266 382.634 187.841 383.03C188.281 383.35 188.441 383.64 188.401 383.68Z" fill="#263238"/>
<path d="M188.221 387.1C187.483 387.032 186.742 387.012 186.001 387.04C185.28 387.212 184.568 387.426 183.871 387.68C183.761 387.6 184.561 386.68 185.931 386.54C186.33 386.443 186.746 386.443 187.145 386.541C187.543 386.638 187.912 386.83 188.221 387.1Z" fill="#263238"/>
<path d="M189.54 378.91C188.41 378.713 187.267 378.603 186.12 378.58C184.978 378.708 183.847 378.929 182.74 379.24C183.723 378.541 184.887 378.138 186.092 378.079C187.297 378.021 188.494 378.309 189.54 378.91Z" fill="#263238"/>
<path d="M187.101 372.46C187.101 372.61 185.751 372.64 184.241 373.26C182.731 373.88 181.721 374.75 181.621 374.64C182.193 373.757 183.057 373.102 184.061 372.79C185.004 372.324 186.081 372.207 187.101 372.46Z" fill="#263238"/>
<path d="M184.391 366.39C183.361 366.507 182.352 366.763 181.391 367.15C180.499 367.671 179.685 368.314 178.971 369.06C178.921 369.06 179.021 368.67 179.381 368.19C179.852 367.555 180.469 367.044 181.181 366.7C181.885 366.348 182.664 366.17 183.451 366.18C184.051 366.2 184.401 366.34 184.391 366.39Z" fill="#263238"/>
<path d="M180.91 365.99C180.737 365.759 180.608 365.498 180.53 365.22C180.284 364.473 180.185 363.685 180.24 362.9C180.229 362.322 180.408 361.756 180.75 361.29C180.874 361.154 181.035 361.058 181.213 361.014C181.391 360.969 181.578 360.978 181.75 361.04C182.087 361.205 182.353 361.485 182.5 361.83C182.764 362.545 182.77 363.329 182.518 364.048C182.266 364.767 181.772 365.376 181.12 365.77C180.468 366.145 179.719 366.319 178.968 366.269C178.217 366.219 177.497 365.948 176.9 365.49C176.748 365.37 176.625 365.219 176.538 365.046C176.452 364.873 176.405 364.683 176.4 364.49C176.411 364.299 176.481 364.116 176.601 363.966C176.721 363.817 176.886 363.71 177.07 363.66C177.63 363.547 178.209 363.582 178.75 363.76C179.516 363.96 180.238 364.299 180.88 364.76C181.33 365.07 181.53 365.3 181.51 365.33C180.631 364.786 179.673 364.381 178.67 364.13C178.193 363.989 177.687 363.971 177.2 364.08C177.099 364.105 177.008 364.163 176.941 364.244C176.875 364.325 176.836 364.425 176.83 364.53C176.848 364.653 176.89 364.77 176.953 364.877C177.017 364.983 177.101 365.076 177.2 365.15C177.726 365.532 178.351 365.755 179 365.792C179.648 365.83 180.294 365.68 180.86 365.36C181.427 365.03 181.862 364.514 182.092 363.9C182.322 363.286 182.332 362.611 182.12 361.99C182.031 361.744 181.852 361.541 181.62 361.42C181.525 361.376 181.418 361.364 181.316 361.386C181.213 361.408 181.12 361.462 181.05 361.54C180.757 361.933 180.596 362.409 180.59 362.9C180.514 363.941 180.623 364.987 180.91 365.99Z" fill="#263238"/>
<path d="M204.951 316.31L178.241 298.31L187.081 211.52L161.781 196.75L138.651 191.39C138.651 191.39 128.991 211.49 124.651 224.39C115.521 251.76 109.101 261.57 110.571 281.39C111.031 287.67 134.211 303.39 148.851 312.1C149.015 313.843 149.276 315.576 149.631 317.29C154.631 339.91 169.911 369.99 169.911 369.99L193.111 359.2L185.631 333.55L193.421 338.1L204.951 316.31ZM147.541 260.31L150.661 246.4C150.001 255.25 149.401 264.48 148.971 273.33C147.463 269.177 146.973 264.722 147.541 260.34V260.31Z" fill="#263238"/>
<path d="M169.951 369.99C169.879 369.873 169.819 369.749 169.771 369.62L169.281 368.53L167.491 364.3C165.951 360.61 163.741 355.3 161.091 348.65C158.441 342 155.301 334.12 152.091 325.22C151.301 322.99 150.531 320.7 149.801 318.33C149.481 317.13 149.071 315.95 148.861 314.68C148.801 314.37 148.731 314.05 148.681 313.74L148.571 312.79L148.361 310.89C148.081 308.33 147.858 305.723 147.691 303.07C147.611 301.75 147.541 300.41 147.481 299.07C147.421 297.73 147.381 296.36 147.481 294.99C147.881 284.09 148.791 273.75 149.551 264.34C150.311 254.93 151.041 246.47 151.641 239.34C152.241 232.21 152.641 226.47 152.841 222.48C152.971 220.48 153.041 218.94 153.081 217.9C153.081 217.39 153.081 216.99 153.151 216.7C153.133 216.567 153.133 216.433 153.151 216.3C153.162 216.433 153.162 216.567 153.151 216.7C153.151 217 153.151 217.39 153.151 217.9C153.151 218.95 153.101 220.5 153.011 222.49C152.841 226.49 152.491 232.25 151.961 239.37C151.431 246.49 150.721 254.96 149.961 264.37C149.201 273.78 148.331 284.12 147.961 294.99C147.881 296.35 147.961 297.69 147.961 299.04C147.961 300.39 148.081 301.71 148.171 303.04C148.331 305.707 148.548 308.303 148.821 310.83L149.031 312.74L149.141 313.68C149.191 313.99 149.261 314.29 149.321 314.6C149.521 315.82 149.921 317.01 150.241 318.2C150.951 320.55 151.721 322.84 152.501 325.07C155.641 333.96 158.751 341.87 161.351 348.52C163.951 355.17 166.121 360.52 167.611 364.22C168.341 366.06 168.921 367.49 169.321 368.49C169.501 368.96 169.651 369.33 169.751 369.6C169.851 369.87 169.951 369.99 169.951 369.99Z" fill="#455A64"/>
<path d="M152.09 213.36C152.09 213.36 151.86 213.22 151.49 212.87C151.012 212.332 150.63 211.717 150.36 211.05C149.568 208.844 149.182 206.513 149.22 204.17C149.189 201.832 149.299 199.495 149.55 197.17C149.597 196.21 149.731 195.256 149.95 194.32C150.032 195.278 150.032 196.242 149.95 197.2C149.86 198.97 149.72 201.42 149.76 204.12C149.744 206.415 150.081 208.698 150.76 210.89C150.995 211.533 151.314 212.141 151.71 212.7C151.95 213.11 152.12 213.34 152.09 213.36Z" fill="#455A64"/>
<path d="M142.11 192.71C142.346 193.494 142.414 194.318 142.31 195.13C142.177 197.121 141.514 199.04 140.391 200.689C139.268 202.338 137.724 203.657 135.92 204.51C135.2 204.902 134.407 205.141 133.59 205.21C133.59 205.13 134.46 204.89 135.76 204.21C137.452 203.31 138.9 202.012 139.98 200.429C141.06 198.846 141.739 197.024 141.96 195.12C142.13 193.64 142.02 192.71 142.11 192.71Z" fill="#455A64"/>
<path d="M183.611 243.17C183.611 243.17 183.611 243.26 183.611 243.43C183.611 243.6 183.611 243.89 183.551 244.2C183.471 244.92 183.371 245.92 183.251 247.2C182.961 249.81 182.561 253.52 182.061 258.08C181.061 267.31 179.581 279.98 178.001 293.99C177.438 300.585 177.879 307.228 179.311 313.69C179.937 316.505 180.742 319.277 181.721 321.99C182.621 324.55 183.451 326.94 184.221 329.13C185.731 333.47 186.951 337 187.811 339.48C188.211 340.68 188.531 341.62 188.811 342.3L189.051 343.04C189.084 343.12 189.105 343.204 189.111 343.29C189.111 343.29 189.111 343.22 189.001 343.05C188.891 342.88 188.831 342.63 188.721 342.33C188.461 341.66 188.121 340.73 187.721 339.54L183.981 329.25C183.201 327.07 182.341 324.68 181.421 322.13C180.419 319.403 179.594 316.614 178.951 313.78C177.478 307.276 177.016 300.585 177.581 293.94C179.141 279.89 180.701 267.23 181.791 258.04C182.361 253.48 182.791 249.77 183.141 247.17C183.301 245.91 183.431 244.93 183.531 244.17C183.531 243.86 183.611 243.61 183.641 243.41C183.62 243.332 183.609 243.251 183.611 243.17Z" fill="#455A64"/>
<path d="M138.65 191.24L142.75 180.78L152.09 194.72L139.63 191.6" fill="#FFBE9D"/>
<path d="M236.471 159.77L225.381 134.9C224.051 130.9 221.561 130.28 219.481 127.96L191.691 112.29C171.431 103.99 160.401 131.81 160.401 131.81L141.991 173.81C120.341 180.98 135.671 197.61 135.671 197.61C135.671 197.61 129.781 187.37 135.581 183.68C141.641 179.81 148.361 190 154.821 199.68C162.451 211.1 187.231 218.52 187.231 218.52C190.131 215.46 189.321 204.77 191.591 199.04C192.311 197.22 209.471 157.47 209.471 157.47L216.121 173.58C216.121 173.58 224.641 163.58 228.781 162C231.276 161.04 233.849 160.294 236.471 159.77Z" fill="#15C993"/>
<path d="M187.221 177.45C186.967 177.681 186.684 177.879 186.381 178.04C185.574 178.509 184.727 178.907 183.851 179.23C180.938 180.327 177.792 180.654 174.715 180.179C171.639 179.705 168.738 178.444 166.291 176.52C165.552 175.949 164.866 175.313 164.241 174.62C163.993 174.384 163.784 174.111 163.621 173.81C163.691 173.74 164.621 174.87 166.501 176.24C168.944 178.042 171.788 179.226 174.789 179.689C177.79 180.152 180.858 179.882 183.731 178.9C185.951 178.16 187.221 177.37 187.221 177.45Z" fill="#263238"/>
<path d="M141.221 137.99L158.371 139.61L185.811 110.61L169.671 110.05L140.941 112.89C142.453 121.181 142.548 129.668 141.221 137.99Z" fill="#15C993"/>
<path d="M164.99 122.73C164.949 122.917 164.878 123.096 164.78 123.26L164.09 124.74C163.47 126.08 162.6 127.93 161.55 130.17C159.42 134.77 156.55 141.17 153.55 148.27C150.55 155.37 147.69 161.8 145.55 166.41C144.5 168.72 143.63 170.57 143 171.85L142.28 173.31C142.204 173.488 142.106 173.655 141.99 173.81C142.041 173.625 142.108 173.444 142.19 173.27L142.83 171.77L145.23 166.27C147.23 161.56 150.02 155.15 153.06 148.07C156.1 140.99 159.06 134.59 161.23 130.02C162.34 127.74 163.23 125.91 163.92 124.65L164.69 123.21C164.773 123.04 164.873 122.879 164.99 122.73Z" fill="#263238"/>
<path d="M217.341 131.16C217.391 131.25 216.341 131.8 214.871 133.04C214.028 133.763 213.255 134.563 212.561 135.43C211.716 136.501 210.986 137.657 210.381 138.88C209.801 140.111 209.345 141.398 209.021 142.72C208.77 143.807 208.623 144.915 208.581 146.03C208.511 147.93 208.731 149.11 208.631 149.12C208.526 148.861 208.459 148.588 208.431 148.31C208.356 147.981 208.309 147.647 208.291 147.31C208.24 146.872 208.217 146.431 208.221 145.99C208.214 144.847 208.331 143.707 208.571 142.59C208.871 141.211 209.324 139.869 209.921 138.59C210.547 137.337 211.309 136.157 212.191 135.07C212.922 134.196 213.743 133.402 214.641 132.7C214.98 132.422 215.337 132.168 215.711 131.94C215.98 131.747 216.265 131.577 216.561 131.43C216.805 131.299 217.069 131.208 217.341 131.16Z" fill="#263238"/>
<path d="M222.13 91.33L206.04 121.41C204.772 123.776 202.655 125.574 200.115 126.442C197.576 127.31 194.801 127.184 192.35 126.09C191.029 125.493 189.845 124.631 188.87 123.558C187.895 122.485 187.151 121.224 186.682 119.852C186.214 118.48 186.031 117.027 186.146 115.582C186.261 114.137 186.671 112.731 187.35 111.45L190.12 106.23C190.12 106.23 183.12 101.7 186.4 94.14C189.32 87.4 200.04 68.36 202.31 64.34L215.87 70.41C217.675 71.3513 219.273 72.645 220.57 74.2145C221.866 75.784 222.835 77.5975 223.419 79.5479C224.002 81.4982 224.189 83.5457 223.968 85.5694C223.746 87.5931 223.121 89.5519 222.13 91.33Z" fill="#FFBE9D"/>
<path d="M190.12 106.12C193.564 107.737 197.41 108.294 201.17 107.72C201.17 107.72 196.43 112.09 189.23 108.06L190.12 106.12Z" fill="#EB996E"/>
<path d="M195.29 82.07C195.16 82.3487 195.144 82.6678 195.247 82.9579C195.35 83.2481 195.563 83.4859 195.84 83.62C195.972 83.6914 196.117 83.7359 196.266 83.7509C196.415 83.7659 196.565 83.7511 196.709 83.7073C196.852 83.6636 196.985 83.5918 197.101 83.4961C197.216 83.4004 197.311 83.2828 197.38 83.15C197.508 82.8708 197.523 82.5528 197.42 82.2634C197.317 81.9739 197.106 81.736 196.83 81.6C196.699 81.5286 196.554 81.4841 196.405 81.4691C196.256 81.4541 196.105 81.4689 195.962 81.5126C195.819 81.5563 195.685 81.6281 195.57 81.7238C195.455 81.8195 195.36 81.9372 195.29 82.07Z" fill="#263238"/>
<path d="M195.35 81.12C195.42 81.32 196.5 81.1201 197.66 81.6001C198.82 82.0801 199.4 83.0701 199.59 82.9901C199.78 82.9101 199.65 82.6401 199.41 82.2101C199.063 81.6406 198.55 81.1906 197.94 80.9201C197.338 80.6501 196.666 80.5766 196.02 80.7101C195.55 80.8201 195.31 80.99 195.35 81.12Z" fill="#263238"/>
<path d="M206.101 87.3901C205.97 87.6688 205.955 87.9879 206.058 88.278C206.161 88.5682 206.374 88.806 206.651 88.9401C206.783 89.0111 206.928 89.055 207.078 89.0693C207.227 89.0836 207.378 89.068 207.522 89.0233C207.665 88.9786 207.798 88.9057 207.913 88.809C208.028 88.7123 208.122 88.5937 208.191 88.4601C208.316 88.182 208.328 87.8664 208.226 87.5793C208.123 87.2923 207.914 87.056 207.641 86.9201C207.509 86.8473 207.365 86.8017 207.215 86.7859C207.066 86.7702 206.915 86.7847 206.771 86.8286C206.628 86.8724 206.494 86.9447 206.379 87.0412C206.264 87.1376 206.169 87.2563 206.101 87.3901Z" fill="#263238"/>
<path d="M206.612 86.41C206.682 86.61 207.762 86.41 208.922 86.89C210.082 87.37 210.662 88.37 210.852 88.29C211.042 88.21 210.922 87.94 210.662 87.5C210.32 86.932 209.81 86.4846 209.202 86.22C208.601 85.9453 207.928 85.8716 207.282 86.01C206.812 86.12 206.572 86.32 206.612 86.41Z" fill="#263238"/>
<path d="M198.58 93.1C198.056 92.6426 197.479 92.2498 196.86 91.93C196.58 91.76 196.32 91.58 196.36 91.36C196.4 91.14 196.66 90.85 196.95 90.57L198.83 88.71C200.491 87.1676 202.025 85.4956 203.42 83.71C201.631 85.1077 199.959 86.6495 198.42 88.32L196.57 90.21C196.226 90.4832 195.989 90.8691 195.9 91.3C195.899 91.4228 195.924 91.5446 195.974 91.6568C196.024 91.769 196.098 91.869 196.19 91.95C196.335 92.0651 196.493 92.1624 196.66 92.24C197.258 92.6136 197.904 92.903 198.58 93.1Z" fill="#263238"/>
<path d="M201.621 95.42C201.441 95.33 200.881 96.58 199.411 96.99C197.941 97.4 196.661 96.67 196.571 96.84C196.481 97.01 196.761 97.21 197.321 97.48C198.05 97.821 198.875 97.8918 199.651 97.68C200.399 97.4818 201.039 96.9967 201.431 96.33C201.711 95.83 201.711 95.46 201.621 95.42Z" fill="#263238"/>
<path d="M208.34 81.75C208.34 82.12 209.53 82.48 210.81 83.25C212.09 84.02 213.03 84.88 213.33 84.68C213.47 84.58 213.41 84.2 213.11 83.68C212.683 83.0456 212.119 82.5156 211.46 82.1294C210.8 81.7433 210.062 81.5111 209.3 81.45C208.72 81.45 208.35 81.58 208.34 81.75Z" fill="#263238"/>
<path d="M197.27 77.99C197.36 78.35 198.27 78.43 199.27 78.84C200.27 79.25 200.96 79.84 201.27 79.62C201.41 79.52 201.4 79.2 201.15 78.8C200.821 78.2809 200.333 77.8813 199.76 77.66C199.193 77.415 198.563 77.3555 197.96 77.49C197.47 77.57 197.22 77.79 197.27 77.99Z" fill="#263238"/>
<path d="M217.071 95.84C217.231 95.84 222.921 96.62 220.461 101.69C218.001 106.76 213.461 103.24 213.461 103.09C213.461 102.94 217.071 95.84 217.071 95.84Z" fill="#FFBE9D"/>
<path d="M215.961 101.92C215.961 101.92 216.021 102.02 216.131 102.17C216.301 102.36 216.537 102.478 216.791 102.5C217.226 102.456 217.64 102.297 217.992 102.038C218.344 101.78 218.62 101.432 218.791 101.03C219.015 100.603 219.141 100.132 219.161 99.65C219.189 99.4683 219.173 99.2824 219.114 99.1083C219.055 98.9342 218.954 98.7769 218.821 98.65C218.731 98.5752 218.618 98.5342 218.501 98.5342C218.384 98.5342 218.271 98.5752 218.181 98.65C218.051 98.76 218.031 98.87 218.001 98.87C217.971 98.87 217.931 98.73 218.071 98.54C218.163 98.4281 218.29 98.3506 218.431 98.32C218.622 98.2842 218.819 98.3236 218.981 98.43C219.168 98.5727 219.315 98.7604 219.41 98.9755C219.504 99.1906 219.543 99.4261 219.521 99.66C219.523 100.203 219.393 100.739 219.141 101.22C218.949 101.684 218.622 102.08 218.204 102.358C217.785 102.636 217.294 102.783 216.791 102.78C216.636 102.753 216.489 102.692 216.359 102.602C216.23 102.513 216.121 102.396 216.041 102.26C215.911 102.05 215.941 101.92 215.961 101.92Z" fill="#EB996E"/>
<path d="M220.011 96.99C219.54 96.7521 219.015 96.6425 218.488 96.6724C217.961 96.7022 217.452 96.8704 217.011 97.16C216.351 97.74 215.901 98.54 215.241 99.16C214.937 99.4827 214.534 99.6951 214.096 99.7639C213.658 99.8327 213.209 99.7539 212.821 99.54C212.594 99.337 212.424 99.0774 212.329 98.7877C212.234 98.4979 212.218 98.1882 212.281 97.89C212.415 97.2917 212.663 96.7247 213.011 96.22C214.381 93.96 215.951 91.8 217.131 89.43C218.415 87.089 218.975 84.4197 218.741 81.76C218.605 80.4373 218.116 79.1755 217.324 78.1074C216.532 77.0392 215.467 76.2042 214.241 75.69C212.591 75.11 210.751 75.28 209.061 74.8C208.061 74.4997 207.141 73.9766 206.372 73.2699C205.603 72.5632 205.005 71.6914 204.621 70.72C204.422 70.3282 204.202 69.9476 203.961 69.58C204.021 69.46 204.621 68.44 205.211 68.24C209.671 66.73 215.701 68.46 219.391 71.37C221.275 72.8337 222.816 74.6908 223.908 76.8118C224.999 78.9328 225.615 81.2666 225.711 83.65C225.761 88.35 222.801 93.53 220.051 97.03" fill="#263238"/>
<path d="M220.06 96.44C221.47 94.04 223.75 92.31 225.49 90.15C227.23 87.99 228.49 84.94 227.19 82.46C226.77 81.61 226.09 80.9 225.74 80.02C225.463 79.1064 225.296 78.1631 225.24 77.21C225.015 75.7535 224.462 74.367 223.624 73.1547C222.785 71.9424 221.683 70.9356 220.4 70.21C218.62 69.21 216.57 68.81 214.76 67.86C211.91 66.36 209.82 63.58 206.76 62.39C206.278 62.1548 205.752 62.0243 205.216 62.0071C204.68 61.9899 204.146 62.0863 203.65 62.29C203.413 62.4055 203.203 62.5696 203.033 62.7717C202.863 62.9739 202.738 63.2095 202.665 63.4632C202.593 63.717 202.574 63.9832 202.611 64.2445C202.648 64.5059 202.74 64.7564 202.88 64.98C202.821 64.7497 202.712 64.535 202.562 64.3512C202.411 64.1674 202.221 64.0188 202.007 63.9159C201.793 63.813 201.558 63.7583 201.32 63.7555C201.083 63.7528 200.847 63.8021 200.63 63.9C200.205 64.1319 199.857 64.4844 199.631 64.9132C199.405 65.3419 199.311 65.8279 199.36 66.31C199.478 67.2725 199.855 68.185 200.45 68.95C202.305 71.5785 205.034 73.4609 208.15 74.26L215.06 73.72L220.72 77.91L224.9 84.58L217.31 94.44L220.06 96.44Z" fill="#263238"/>
<path d="M176.87 57.09C176.589 52.7329 175.143 48.5311 172.683 44.9238C170.224 41.3164 166.84 38.4358 162.887 36.5828C158.933 34.7299 154.555 33.9726 150.209 34.3902C145.862 34.8078 141.708 36.3848 138.18 38.9566C134.651 41.5284 131.878 45.0005 130.151 49.0102C128.423 53.0199 127.803 57.42 128.357 61.7509C128.911 66.0818 130.618 70.1845 133.299 73.6304C135.98 77.0763 139.538 79.7388 143.6 81.34C143.79 84.22 144 87.48 144 87.48L165.32 86.1C165.32 86.1 165.23 82.65 165.07 79.57C168.913 77.2699 172.048 73.9547 174.13 69.9888C176.212 66.0228 177.16 61.5597 176.87 57.09Z" fill="#15C993"/>
<path d="M157.601 86.5C157.601 86.5 157.601 86.39 157.601 86.2C157.601 86.01 157.601 85.69 157.601 85.31C157.601 84.54 157.711 83.39 157.831 81.92C157.951 80.45 158.121 78.64 158.451 76.57C158.815 74.2115 159.408 71.894 160.221 69.65C160.699 68.3437 161.291 67.0821 161.991 65.88C162.372 65.2236 162.911 64.6734 163.561 64.28C163.912 64.0841 164.305 63.9755 164.707 63.9633C165.109 63.9511 165.508 64.0357 165.871 64.21C166.254 64.3948 166.552 64.7209 166.701 65.12C166.865 65.5239 166.865 65.9761 166.701 66.38C166.344 67.1573 165.714 67.7765 164.931 68.12C164.105 68.4432 163.224 68.5994 162.337 68.5795C161.451 68.5596 160.578 68.364 159.767 68.004C158.957 67.644 158.227 67.1269 157.618 66.4825C157.009 65.8381 156.534 65.0793 156.221 64.25C155.851 63.3659 155.736 62.3958 155.891 61.45C155.974 60.947 156.231 60.489 156.616 60.155C157.001 59.8209 157.491 59.6317 158.001 59.62C158.264 59.6285 158.522 59.7048 158.748 59.8414C158.973 59.978 159.16 60.1703 159.291 60.4C159.559 60.8434 159.662 61.3679 159.581 61.88C159.345 62.8664 158.803 63.7524 158.031 64.41C157.295 65.1169 156.419 65.6605 155.459 66.0051C154.499 66.3498 153.478 66.4878 152.461 66.41C151.442 66.3142 150.461 65.9731 149.602 65.4158C148.744 64.8585 148.033 64.1017 147.531 63.21C147.272 62.7707 147.108 62.2826 147.048 61.7766C146.988 61.2706 147.033 60.7577 147.181 60.27C147.253 60.0198 147.379 59.7886 147.551 59.5926C147.723 59.3966 147.935 59.2406 148.174 59.1357C148.412 59.0308 148.67 58.9795 148.931 58.9854C149.191 58.9914 149.447 59.0544 149.681 59.17C150.141 59.383 150.525 59.732 150.781 60.17C151.02 60.5969 151.176 61.0651 151.241 61.55C151.369 62.4865 151.304 63.4394 151.051 64.35C150.581 66.135 149.447 67.6732 147.881 68.65C146.386 69.5668 144.613 69.9213 142.881 69.65C142.039 69.5712 141.245 69.2201 140.621 68.65C140.315 68.3522 140.12 67.9593 140.067 67.5358C140.014 67.1124 140.107 66.6836 140.331 66.32C140.59 65.9852 140.971 65.766 141.391 65.71C141.79 65.6589 142.196 65.7105 142.571 65.86C143.26 66.1969 143.819 66.7524 144.161 67.44C144.861 68.72 145.431 69.97 146.011 71.16C148.271 75.94 149.911 79.89 151.011 82.63C151.561 84 152.011 85.07 152.251 85.79C152.381 86.15 152.481 86.43 152.561 86.62C152.597 86.7145 152.627 86.8114 152.651 86.91L152.531 86.63L152.191 85.82L150.901 82.67C149.761 79.95 148.091 76.01 145.811 71.25C145.231 70.07 144.641 68.8 143.951 67.55C143.632 66.9131 143.112 66.3996 142.471 66.09C142.153 65.8931 141.773 65.8253 141.407 65.9006C141.041 65.9758 140.718 66.1883 140.504 66.4944C140.29 66.8005 140.202 67.1769 140.257 67.5462C140.312 67.9156 140.507 68.2497 140.801 68.48C141.384 69.0117 142.125 69.3383 142.911 69.41C144.582 69.6588 146.287 69.3043 147.721 68.41C149.207 67.4576 150.278 65.9789 150.721 64.27C150.965 63.3953 151.026 62.4795 150.901 61.58C150.871 61.1329 150.728 60.7007 150.485 60.3245C150.242 59.9482 149.906 59.6403 149.511 59.43C149.311 59.3384 149.095 59.291 148.876 59.291C148.656 59.291 148.44 59.3384 148.241 59.43C148.038 59.5267 147.859 59.6662 147.716 59.8388C147.572 60.0115 147.468 60.2132 147.411 60.43C147.276 60.8784 147.236 61.3499 147.293 61.8145C147.35 62.2792 147.502 62.7271 147.741 63.13C148.227 63.9693 148.908 64.6796 149.726 65.2016C150.543 65.7236 151.474 66.0419 152.441 66.13C153.415 66.2022 154.393 66.0675 155.312 65.7349C156.231 65.4023 157.068 64.8792 157.771 64.2C158.49 63.5849 158.997 62.7593 159.221 61.84C159.291 61.394 159.202 60.9375 158.971 60.55C158.863 60.3638 158.711 60.2075 158.527 60.0957C158.344 59.9838 158.135 59.92 157.921 59.91C157.479 59.9128 157.055 60.0804 156.731 60.38C156.405 60.6779 156.187 61.0752 156.111 61.51C155.963 62.4016 156.07 63.3169 156.421 64.15C156.72 64.9522 157.176 65.6866 157.762 66.3101C158.349 66.9337 159.054 67.4339 159.836 67.7813C160.619 68.1287 161.463 68.3164 162.318 68.3334C163.174 68.3503 164.025 68.1962 164.821 67.88C165.544 67.5642 166.127 66.9953 166.461 66.28C166.604 65.943 166.613 65.5641 166.487 65.2204C166.36 64.8768 166.108 64.5941 165.781 64.43C165.453 64.2718 165.092 64.1946 164.728 64.205C164.365 64.2155 164.009 64.3132 163.691 64.49C163.085 64.8621 162.58 65.3772 162.221 65.99C161.527 67.1765 160.938 68.4212 160.461 69.71C159.639 71.9327 159.036 74.2303 158.661 76.57C158.311 78.64 158.121 80.44 157.981 81.91C157.841 83.38 157.771 84.51 157.701 85.3L157.631 86.18C157.621 86.4 157.601 86.5 157.601 86.5Z" fill="#263238"/>
<path d="M163.929 90.15L145.629 91.34C145.263 91.362 144.904 91.2388 144.628 90.9973C144.353 90.7557 144.184 90.4153 144.159 90.05C144.137 89.6855 144.26 89.3271 144.502 89.0535C144.744 88.7798 145.084 88.6132 145.449 88.59L163.759 87.41C163.939 87.3978 164.119 87.4212 164.29 87.479C164.461 87.5368 164.619 87.6278 164.755 87.7467C164.89 87.8656 165.001 88.0102 165.081 88.1721C165.16 88.3339 165.207 88.51 165.219 88.69C165.241 89.0545 165.117 89.4129 164.875 89.6865C164.634 89.9602 164.293 90.1269 163.929 90.15Z" fill="#263238"/>
<path d="M164.009 91.3499L145.699 92.5399C145.336 92.5638 144.997 92.731 144.757 93.0048C144.517 93.2786 144.395 93.6366 144.419 93.9999C144.443 94.3633 144.61 94.7023 144.884 94.9423C145.158 95.1824 145.516 95.3038 145.879 95.2799L147.879 95.1499L150.879 100.06C151.05 100.334 151.291 100.557 151.578 100.705C151.865 100.852 152.187 100.92 152.509 100.9L159.049 100.48C159.373 100.455 159.684 100.343 159.949 100.157C160.215 99.9703 160.425 99.7158 160.559 99.4199L162.819 94.1899L164.189 94.0999C164.539 94.0577 164.86 93.8828 165.086 93.6112C165.311 93.3396 165.424 92.9919 165.401 92.6397C165.378 92.2875 165.221 91.9575 164.962 91.7176C164.703 91.4777 164.362 91.3461 164.009 91.3499Z" fill="#263238"/>
<g opacity="0.2">
<path d="M135.91 44.17C137.259 42.7354 138.837 41.5356 140.58 40.62C141.721 39.9961 142.947 39.5445 144.22 39.28C145.14 39.13 145.67 39.18 145.73 39.37C145.86 39.81 144.06 40.58 141.73 42.37C138.618 44.6349 136.223 47.7475 134.831 51.3363C133.439 54.9252 133.109 58.8387 133.88 62.61C134.41 65.56 135.22 67.34 134.88 67.61C134.7 67.72 134.28 67.4 133.71 66.67C132.927 65.6149 132.313 64.4442 131.89 63.2C131.242 61.348 130.905 59.4019 130.89 57.44C130.844 54.9985 131.268 52.5708 132.14 50.29" fill="white"/>
</g>
<g opacity="0.2">
<path d="M151.669 40.05C150.129 40.13 148.739 39.8 148.529 38.99C148.439 38.59 148.699 38.14 149.229 37.77C149.915 37.353 150.693 37.1096 151.495 37.0608C152.296 37.012 153.097 37.1593 153.829 37.49C154.409 37.8 154.709 38.22 154.669 38.63" fill="white"/>
</g>
<path d="M160.22 99.87C159.784 99.7945 159.354 99.6943 158.93 99.57C157.903 99.3436 156.847 99.2762 155.8 99.37C154.768 99.4812 153.757 99.7405 152.8 100.14C152.06 100.46 151.62 100.72 151.6 100.68C151.923 100.372 152.299 100.125 152.71 99.95C153.682 99.476 154.732 99.1813 155.81 99.08C156.888 98.9759 157.976 99.0708 159.02 99.36C159.446 99.4609 159.851 99.6334 160.22 99.87Z" fill="#455A64"/>
<path d="M162.87 94.2499C162.87 94.3299 159.57 94.6099 155.48 94.8799C151.39 95.1499 148.09 95.29 148.08 95.2C148.07 95.11 151.38 94.8399 155.46 94.5799C159.54 94.3199 162.86 94.1699 162.87 94.2499Z" fill="#455A64"/>
<path d="M161.859 96.4999C161.272 96.6457 160.673 96.7427 160.069 96.79C158.959 96.94 157.419 97.1 155.709 97.24C153.999 97.38 152.459 97.45 151.339 97.48C150.737 97.5347 150.131 97.5347 149.529 97.48C150.122 97.3594 150.725 97.2925 151.329 97.2799L155.689 96.95L160.049 96.59C160.649 96.5087 161.255 96.4786 161.859 96.4999Z" fill="#455A64"/>
<path d="M30.0195 218.99L34.0195 225.36C34.0195 225.36 51.0195 209.75 67.8095 214.16C67.7795 214.14 52.6595 201.32 30.0195 218.99Z" fill="#15C993"/>
<path d="M67.7793 214.14C67.7793 214.14 80.2293 200.62 98.4893 203.7L103.489 204.45L101.909 201.58C101.909 201.58 70.1193 190.7 67.7793 214.14Z" fill="#15C993"/>
<path d="M41.4987 168.55C41.4987 168.55 16.5588 164.26 0.21875 173.11L26.2188 221.99C26.2188 221.99 47.4788 201.5 67.8188 214.12L41.4987 168.55Z" fill="#F5F5F5"/>
<path d="M41.4996 168.55C41.551 168.613 41.5978 168.68 41.6396 168.75L42.0096 169.37L43.4496 171.8L48.8496 181.06L67.9696 214.06C67.9935 214.102 68.0029 214.151 67.9964 214.198C67.99 214.246 67.968 214.29 67.934 214.324C67.8999 214.359 67.8556 214.38 67.8078 214.387C67.7601 214.393 67.7115 214.384 67.6696 214.36C64.7381 212.547 61.4916 211.302 58.0996 210.69C56.3181 210.402 54.5141 210.274 52.7096 210.31C50.8536 210.392 49.0073 210.626 47.1896 211.01C39.5059 212.898 32.4171 216.68 26.5696 222.01L26.3496 222.21C26.3272 222.234 26.3001 222.253 26.27 222.266C26.2399 222.279 26.2074 222.286 26.1746 222.286C26.1418 222.286 26.1094 222.279 26.0793 222.266C26.0492 222.253 26.0221 222.234 25.9996 222.21V222.16L0.0296314 173.21C0.0158434 173.187 0.00695843 173.162 0.00353891 173.136C0.00011939 173.11 0.0022438 173.083 0.00977976 173.057C0.0173157 173.032 0.0300956 173.008 0.0472935 172.988C0.0644914 172.968 0.0857254 172.952 0.109633 172.94C5.32121 170.34 10.9448 168.665 16.7296 167.99C21.1408 167.447 25.5879 167.253 30.0296 167.41C33.7196 167.54 36.5896 167.83 38.5296 168.07C39.5296 168.19 40.2496 168.3 40.7496 168.39L41.3196 168.49H41.4996H41.3096L40.7396 168.42C40.2396 168.36 39.4996 168.26 38.5196 168.16C36.5196 167.96 33.6996 167.71 30.0296 167.62C25.6022 167.498 21.1721 167.722 16.7796 168.29C11.0426 168.996 5.47061 170.687 0.30963 173.29L0.389632 173.02L26.3896 221.9L25.9996 221.83L26.2196 221.63C29.2516 218.921 32.5871 216.572 36.1596 214.63C39.5863 212.742 43.2627 211.348 47.0796 210.49C48.9259 210.095 50.8029 209.861 52.6896 209.79C54.5245 209.748 56.3593 209.878 58.1696 210.18C61.6149 210.814 64.9114 212.086 67.8896 213.93L67.5796 214.23C59.7996 200.64 53.2596 189.23 48.6696 181.23L43.3496 171.89L41.9596 169.41C41.8096 169.13 41.6896 168.92 41.6096 168.76C41.5681 168.693 41.5313 168.623 41.4996 168.55Z" fill="#263238"/>
<path d="M80.7003 158.52C80.7003 158.52 61.8403 146.52 41.8203 168.52L68.1003 214.11C68.1003 214.11 73.4603 195.61 104.84 202.04L80.7003 158.52Z" fill="#F5F5F5"/>
<path d="M80.7 158.52C80.7514 158.577 80.7952 158.641 80.83 158.71L81.17 159.3L82.5 161.62L87.5 170.46L105.03 201.99C105.044 202.014 105.053 202.041 105.057 202.069C105.061 202.097 105.059 202.125 105.051 202.152C105.044 202.179 105.031 202.204 105.014 202.226C104.996 202.248 104.975 202.267 104.95 202.28C104.902 202.299 104.848 202.299 104.8 202.28L100.13 201.51C99.3324 201.375 98.5278 201.284 97.72 201.24L95.26 201.05C94.4257 200.972 93.5873 200.948 92.75 200.98L90.22 200.99C89.36 200.99 88.51 201.16 87.65 201.24C86.7821 201.311 85.9201 201.442 85.07 201.63L82.5 202.21L79.97 203.1C79.1382 203.436 78.3239 203.813 77.53 204.23C77.1175 204.418 76.7226 204.642 76.35 204.9L75.2 205.64C74.44 206.15 73.76 206.77 73.05 207.34C72.3801 207.968 71.749 208.636 71.16 209.34C69.9495 210.762 69.0014 212.387 68.36 214.14C68.3374 214.202 68.291 214.253 68.231 214.281C68.171 214.309 68.1023 214.313 68.04 214.29C67.9847 214.271 67.9384 214.231 67.91 214.18L66.85 212.35C57.56 196.2 48.85 181.15 41.66 168.58C41.6359 168.543 41.623 168.499 41.623 168.455C41.623 168.411 41.6359 168.367 41.66 168.33C45.6292 163.836 50.4706 160.196 55.89 157.63C60.0951 155.71 64.705 154.845 69.32 155.11C72.2676 155.286 75.1679 155.934 77.91 157.03C78.6277 157.325 79.3287 157.659 80.01 158.03L80.53 158.33L80.69 158.45L80.51 158.36L79.98 158.09C79.51 157.86 78.81 157.52 77.87 157.16C74.3617 155.825 70.6213 155.207 66.8699 155.342C63.1186 155.478 59.4326 156.365 56.03 157.95C50.6719 160.523 45.8894 164.152 41.97 168.62V168.38L67.22 212.18L68.32 213.99L67.86 214.05C68.5211 212.226 69.4995 210.533 70.75 209.05C71.3601 208.327 72.0077 207.636 72.69 206.98C73.43 206.39 74.12 205.75 74.9 205.24L76.07 204.48C76.4529 204.219 76.8577 203.991 77.28 203.8C78.12 203.41 78.91 202.94 79.77 202.64L82.34 201.75L84.96 201.16C85.8226 200.966 86.6983 200.836 87.58 200.77C88.45 200.69 89.31 200.53 90.17 200.52H92.74C93.5837 200.48 94.4291 200.5 95.27 200.58L97.75 200.79C98.5648 200.829 99.3765 200.919 100.18 201.06L104.88 201.85L104.65 202.17C97.48 189.17 91.49 178.28 87.27 170.61C85.18 166.8 83.53 163.78 82.4 161.7L81.12 159.34C80.99 159.08 80.88 158.88 80.8 158.73C80.72 158.58 80.7 158.52 80.7 158.52Z" fill="#263238"/>
<path d="M7.21875 149.61L35.3487 203.76C35.3487 203.76 58.1988 202.76 67.8788 213.9L41.8187 168.55C41.8187 168.55 26.5387 149.61 7.21875 149.61Z" fill="#F5F5F5"/>
<path d="M7.21899 149.61H7.93899L10.099 149.7C10.339 149.7 10.599 149.7 10.859 149.7L11.689 149.84L13.569 150.15C14.2974 150.271 15.0159 150.445 15.719 150.67C16.5339 150.865 17.3383 151.102 18.129 151.38C24.849 153.62 33.869 159.04 41.969 168.38L68.069 213.7C68.1018 213.757 68.1107 213.825 68.0939 213.889C68.077 213.952 68.0357 214.007 67.979 214.04C67.9364 214.074 67.8835 214.093 67.829 214.093C67.7745 214.093 67.7216 214.074 67.679 214.04L66.579 212.94C64.4855 210.935 62.0462 209.326 59.379 208.19C56.794 207.034 54.0963 206.15 51.329 205.55C46.0781 204.385 40.7063 203.855 35.329 203.97C35.2865 203.97 35.2447 203.96 35.2078 203.938C35.1709 203.917 35.1402 203.887 35.119 203.85C26.919 187.95 19.919 174.36 14.949 164.74C12.529 159.99 10.589 156.19 9.21899 153.57C8.56899 152.3 8.05898 151.31 7.70898 150.57L7.32899 149.82L7.20898 149.57C7.26872 149.654 7.31902 149.745 7.35899 149.84C7.46899 150.03 7.59898 150.28 7.77898 150.61L9.35899 153.61L15.219 164.83L35.519 203.65L35.309 203.53C40.7222 203.399 46.1315 203.923 51.419 205.09C54.2157 205.698 56.9432 206.589 59.559 207.75C62.2802 208.911 64.7673 210.558 66.899 212.61L68.029 213.73L67.629 214.02C57.959 197.17 49.009 181.55 41.629 168.66C38.014 164.44 33.8775 160.697 29.319 157.52C25.8401 155.062 22.046 153.085 18.039 151.64C17.2519 151.356 16.4508 151.113 15.639 150.91C14.9434 150.677 14.2314 150.497 13.509 150.37L11.639 150.03L10.829 149.88L10.089 149.82L7.21899 149.61Z" fill="#263238"/>
<path d="M95.0201 303.19L95.6201 304.19C96.2979 305.316 97.2832 306.225 98.4601 306.81L99.4601 307.33L98.4601 307.93C97.3376 308.612 96.4297 309.596 95.8401 310.77L95.3201 311.82L94.7201 310.82C94.0422 309.694 93.0569 308.785 91.8801 308.2L90.8301 307.68L91.8301 307.08C92.9586 306.405 93.8683 305.419 94.4501 304.24L95.0201 303.19Z" fill="#15C993"/>
<path d="M39.5709 96.9199L40.1809 97.9199C40.8593 99.0429 41.8447 99.9485 43.0209 100.53L44.0209 101.05L43.0209 101.66C41.8905 102.332 40.9802 103.319 40.4009 104.5L39.8809 105.5L39.2809 104.5C38.6021 103.371 37.6127 102.462 36.4309 101.88L35.3809 101.36L36.3809 100.76C37.5047 100.075 38.4128 99.0873 39.0009 97.9099L39.5709 96.9199Z" fill="#15C993"/>
<path d="M296.161 132.51L296.762 133.51C297.44 134.639 298.43 135.548 299.612 136.13L300.661 136.65L299.661 137.25C298.538 137.932 297.632 138.921 297.051 140.1L296.531 141.1L295.922 140.1C295.246 138.975 294.26 138.069 293.081 137.49L292.021 136.99L293.021 136.38C294.152 135.708 295.062 134.721 295.642 133.54L296.161 132.51Z" fill="#15C993"/>
<path d="M265.86 316.14L266.46 317.14C267.142 318.264 268.131 319.169 269.31 319.75L270.36 320.27L269.36 320.88C268.235 321.558 267.326 322.543 266.74 323.72L266.23 324.77L265.62 323.77C264.946 322.642 263.96 321.732 262.78 321.15L261.73 320.63L262.73 320.03C263.859 319.351 264.769 318.362 265.35 317.18L265.86 316.14Z" fill="#15C993"/>
<path d="M271.631 354.73L271.921 354.85C272.239 354.974 272.585 355.009 272.921 354.95L273.231 354.89L273.111 355.18C272.987 355.498 272.952 355.844 273.011 356.18L273.071 356.49L272.781 356.37C272.463 356.247 272.117 356.212 271.781 356.27L271.471 356.33L271.591 356.04C271.715 355.722 271.749 355.376 271.691 355.04L271.631 354.73Z" fill="#15C993"/>
<path d="M289.08 93.8L289.36 93.92C289.678 94.0425 290.024 94.0771 290.36 94.0201L290.66 93.9601L290.55 94.25C290.421 94.5669 290.387 94.914 290.45 95.25L290.51 95.5601L290.22 95.44C289.902 95.3176 289.556 95.283 289.22 95.3401L288.92 95.4001L289.03 95.11C289.159 94.7932 289.193 94.4461 289.13 94.11L289.08 93.8Z" fill="#15C993"/>
<path d="M50.8514 69.99L51.1414 70.1C51.4582 70.2287 51.8054 70.2634 52.1414 70.2H52.4514L52.3314 70.48C52.2089 70.7983 52.1744 71.1437 52.2314 71.48L52.2914 71.78L52.0014 71.67C51.6846 71.5413 51.3374 71.5066 51.0014 71.57L50.6914 71.63L50.8114 71.34C50.9339 71.0217 50.9684 70.6763 50.9114 70.34L50.8514 69.99Z" fill="#15C993"/>
<path d="M80.2206 273.15L80.5105 273.26C80.8262 273.393 81.1747 273.428 81.5105 273.36L81.8206 273.31L81.7005 273.6C81.5766 273.918 81.542 274.264 81.6006 274.6L81.6606 274.9L81.3705 274.79C81.0537 274.661 80.7066 274.627 80.3705 274.69L80.0605 274.75L80.1806 274.46C80.303 274.142 80.3376 273.796 80.2805 273.46L80.2206 273.15Z" fill="#15C993"/>
<path d="M112.13 351.68L111.85 351.97L111.02 352.8L107.79 355.99L95.7903 367.56V367.44C96.4203 379.99 97.2203 396.99 98.0603 415.99V416.41L97.7003 416.18L93.3703 413.28L65.9303 394.91H65.8703V394.85C61.7703 382.62 58.3203 372.3 55.8703 365.02C54.6703 361.4 53.7303 358.54 53.0703 356.56L52.3503 354.31C52.2703 354.07 52.2103 353.88 52.1703 353.74C52.1703 353.6 52.1103 353.54 52.1203 353.54L52.2003 353.72C52.2469 353.867 52.3169 354.057 52.4103 354.29C52.5903 354.82 52.8503 355.56 53.1903 356.52L56.0903 364.95C58.5703 372.22 62.0903 382.51 66.2303 394.72L66.1503 394.62L93.6203 412.96L97.9503 415.85L97.6103 416.04C96.8003 397.04 96.0703 380.04 95.5303 367.47V367.4H95.5803L107.66 355.94L110.95 352.85L111.81 352.06C112.02 351.76 112.13 351.68 112.13 351.68Z" fill="#15C993"/>
<path d="M99.3517 410.25L99.2617 413.08L101.542 414.76L98.8217 415.55L97.9317 418.24L96.3417 415.89L93.5117 415.88L95.2417 413.64L94.3817 410.94L97.0517 411.9L99.3517 410.25Z" fill="#15C993"/>
<path d="M66.2902 391.03L66.3402 392.87L67.8802 393.86L66.1602 394.48L65.6902 396.25L64.5702 394.8L62.7402 394.9L63.7702 393.39L63.1102 391.68L64.8702 392.19L66.2902 391.03Z" fill="#15C993"/>
<path d="M52.0513 350.11L53.4313 351.88L55.6813 351.75L54.4213 353.61L55.2413 355.71L53.0713 355.08L51.3313 356.51L51.2613 354.26L49.3613 353.05L51.4813 352.28L52.0513 350.11Z" fill="#15C993"/>
<path d="M110.741 348.33L112.121 350.11L114.371 349.97L113.111 351.84L113.931 353.93L111.771 353.31L110.031 354.74L109.951 352.49L108.061 351.27L110.171 350.51L110.741 348.33Z" fill="#15C993"/>
<path d="M95.3311 365.48L96.2211 366.61L97.6511 366.52L96.8411 367.71L97.3711 369.05L95.9911 368.65L94.8811 369.56L94.8311 368.13L93.6211 367.36L94.9711 366.87L95.3311 365.48Z" fill="#15C993"/>
<path d="M42.4107 289.84C53.4233 289.84 62.3507 280.913 62.3507 269.9C62.3507 258.887 53.4233 249.96 42.4107 249.96C31.3981 249.96 22.4707 258.887 22.4707 269.9C22.4707 280.913 31.3981 289.84 42.4107 289.84Z" fill="#15C993"/>
<g opacity="0.3">
<path d="M39.8208 276.12C39.8227 276.766 39.633 277.397 39.2755 277.935C38.9181 278.472 38.409 278.892 37.8129 279.14C37.2168 279.388 36.5605 279.453 35.9272 279.328C35.2939 279.202 34.7121 278.892 34.2556 278.435C33.7991 277.979 33.4884 277.397 33.3629 276.763C33.2375 276.13 33.3029 275.474 33.5509 274.878C33.7988 274.282 34.2182 273.773 34.7559 273.415C35.2935 273.058 35.9252 272.868 36.5708 272.87C37.4319 272.873 38.257 273.216 38.8659 273.825C39.4749 274.434 39.8181 275.259 39.8208 276.12Z" fill="white"/>
</g>
<g opacity="0.3">
<path d="M35.2199 266.74C35.2219 267.116 35.1121 267.485 34.9046 267.798C34.697 268.112 34.4009 268.357 34.0539 268.502C33.7069 268.648 33.3246 268.687 32.9554 268.615C32.5862 268.543 32.2467 268.362 31.98 268.097C31.7132 267.832 31.5313 267.493 31.4572 267.124C31.383 266.756 31.4201 266.373 31.5636 266.025C31.7071 265.677 31.9506 265.38 32.2633 265.171C32.576 264.962 32.9437 264.85 33.3199 264.85C33.8221 264.85 34.3038 265.049 34.6599 265.403C35.0159 265.757 35.2173 266.238 35.2199 266.74Z" fill="white"/>
</g>
<path d="M23.0603 274.75C23.1503 275.1 5.99031 291.56 10.4203 295.07C14.8503 298.58 33.4203 289.58 49.3103 276.77C65.2003 263.96 79.6603 248.4 75.6903 244.28C71.7203 240.16 51.9003 252.35 51.9003 252.35L54.2703 253.87C54.2703 253.87 66.2703 246.18 70.0503 249.16C73.8303 252.14 63.0503 263.8 47.7803 274.94C32.5103 286.08 17.7803 293.88 15.5103 290.83C13.2403 287.78 24.0103 277.61 24.0103 277.61L23.0603 274.75Z" fill="#15C993"/>
<g opacity="0.3">
<path d="M23.0603 274.75C23.1503 275.1 5.99031 291.56 10.4203 295.07C14.8503 298.58 33.4203 289.58 49.3103 276.77C65.2003 263.96 79.6603 248.4 75.6903 244.28C71.7203 240.16 51.9003 252.35 51.9003 252.35L54.2703 253.87C54.2703 253.87 66.2703 246.18 70.0503 249.16C73.8303 252.14 63.0503 263.8 47.7803 274.94C32.5103 286.08 17.7803 293.88 15.5103 290.83C13.2403 287.78 24.0103 277.61 24.0103 277.61L23.0603 274.75Z" fill="black"/>
</g>
<g opacity="0.3">
<path d="M31.4207 255.85C31.5807 256.04 30.2307 257.19 28.7007 259.49C26.6709 262.445 25.5513 265.931 25.4802 269.515C25.4091 273.1 26.3897 276.627 28.3007 279.66C29.7407 282.03 31.0407 283.23 30.8707 283.41C30.7007 283.59 29.1707 282.63 27.3907 280.27C26.3627 278.889 25.547 277.362 24.9707 275.74C23.5116 271.702 23.6006 267.266 25.2207 263.29C25.8586 261.687 26.7352 260.19 27.8207 258.85C29.6907 256.57 31.3307 255.71 31.4207 255.85Z" fill="white"/>
</g>
<path d="M273.57 94.9573C280.129 88.6714 280.351 78.2582 274.065 71.6988C267.779 65.1393 257.366 64.9176 250.807 71.2035C244.247 77.4894 244.025 87.9026 250.311 94.462C256.597 101.021 267.01 101.243 273.57 94.9573Z" fill="#15C993"/>
<g opacity="0.4">
<path d="M267.55 76.79C267.562 76.2601 267.731 75.7457 268.035 75.3118C268.339 74.8779 268.765 74.5439 269.259 74.3522C269.754 74.1605 270.293 74.1195 270.811 74.2345C271.328 74.3496 271.8 74.6154 272.166 74.9985C272.532 75.3816 272.777 75.8646 272.869 76.3866C272.96 76.9086 272.895 77.4461 272.682 77.9311C272.468 78.4161 272.115 78.8269 271.668 79.1115C271.221 79.3961 270.7 79.5417 270.17 79.53C269.817 79.5235 269.47 79.4473 269.147 79.3059C268.824 79.1644 268.533 78.9604 268.289 78.7057C268.046 78.451 267.855 78.1506 267.728 77.8218C267.601 77.493 267.54 77.1423 267.55 76.79Z" fill="black"/>
</g>
<g opacity="0.4">
<path d="M272.911 83.05C272.917 82.7391 273.015 82.4371 273.193 82.1821C273.371 81.9271 273.62 81.7307 273.91 81.6178C274.2 81.5048 274.516 81.4804 274.82 81.5476C275.123 81.6149 275.4 81.7707 275.615 81.9954C275.83 82.2201 275.973 82.5036 276.027 82.8098C276.08 83.1161 276.042 83.4314 275.916 83.7157C275.79 84 275.583 84.2406 275.32 84.4069C275.058 84.5733 274.751 84.6579 274.441 84.65C274.235 84.6461 274.032 84.6016 273.844 84.5189C273.655 84.4363 273.485 84.3171 273.343 84.1684C273.2 84.0197 273.089 83.8443 273.015 83.6524C272.941 83.4604 272.905 83.2557 272.911 83.05Z" fill="black"/>
</g>
<g opacity="0.4">
<path d="M270.821 87.85C270.896 87.8499 270.97 87.865 271.04 87.8944C271.109 87.9238 271.172 87.9669 271.224 88.021C271.276 88.0751 271.317 88.1392 271.344 88.2095C271.371 88.2798 271.383 88.3548 271.381 88.43C271.375 88.583 271.311 88.7279 271.201 88.8343C271.091 88.9406 270.944 89.0001 270.791 89C270.638 88.9947 270.495 88.93 270.39 88.8196C270.285 88.7092 270.228 88.5621 270.231 88.41C270.232 88.3342 270.248 88.2595 270.279 88.1902C270.309 88.1209 270.353 88.0583 270.408 88.0062C270.463 87.954 270.528 87.9134 270.599 87.8866C270.669 87.8597 270.745 87.8473 270.821 87.85Z" fill="black"/>
</g>
</g>
<defs>
<clipPath id="clip0_115_1361">
<rect width="355.85" height="438.75" fill="white"/>
</clipPath>
</defs>
</svg>
