<?xml version="1.0" standalone="no"?>
<!DOCTYPE svg PUBLIC "-//W3C//DTD SVG 20010904//EN"
 "http://www.w3.org/TR/2001/REC-SVG-20010904/DTD/svg10.dtd">
<svg version="1.0" xmlns="http://www.w3.org/2000/svg"
 width="180.000000pt" height="180.000000pt" viewBox="0 0 180.000000 180.000000"
 preserveAspectRatio="xMidYMid meet">
<metadata>
Created by potrace 1.14, written by Peter Selinger 2001-2017
</metadata>
<g transform="translate(0.000000,180.000000) scale(0.100000,-0.100000)"
fill="#000000" stroke="none">
<path d="M295 1780 c-118 -38 -220 -132 -268 -250 -22 -54 -22 -62 -25 -600
-3 -484 -1 -552 14 -608 33 -125 130 -235 251 -284 58 -23 59 -23 608 -26 527
-3 552 -2 616 18 122 37 223 129 270 247 l24 58 0 570 0 570 -24 58 c-47 117
-147 210 -268 247 -62 19 -91 20 -602 19 -499 0 -540 -1 -596 -19z m832 -663
c176 -175 193 -196 193 -227 0 -31 -16 -51 -178 -212 -161 -161 -181 -178
-212 -178 -31 0 -52 18 -222 187 -142 141 -189 195 -193 218 -3 16 1 99 8 183
18 199 11 192 189 208 73 6 153 12 178 13 l44 1 193 -193z"/>
<path d="M692 1127 c-60 -63 6 -164 89 -135 59 20 72 120 19 148 -34 18 -85
12 -108 -13z"/>
</g>
</svg>
