<svg width="36" height="36" viewBox="0 0 36 36" fill="none" xmlns="http://www.w3.org/2000/svg">
<circle cx="18" cy="18" r="18" fill="#15C993"/>
<path d="M24.125 13.25H21.5V12.4C21.5 11.4983 21.1313 10.6335 20.4749 9.99584C19.8185 9.35821 18.9283 9 18 9C17.0717 9 16.1815 9.35821 15.5251 9.99584C14.8687 10.6335 14.5 11.4983 14.5 12.4V13.25H11.875C11.6429 13.25 11.4204 13.3396 11.2563 13.499C11.0922 13.6584 11 13.8746 11 14.1V23.45C11 24.1263 11.2766 24.7749 11.7688 25.2531C12.2611 25.7313 12.9288 26 13.625 26H22.375C23.0712 26 23.7389 25.7313 24.2312 25.2531C24.7234 24.7749 25 24.1263 25 23.45V14.1C25 13.8746 24.9078 13.6584 24.7437 13.499C24.5796 13.3396 24.3571 13.25 24.125 13.25ZM16.25 12.4C16.25 11.9491 16.4344 11.5167 16.7626 11.1979C17.0908 10.8791 17.5359 10.7 18 10.7C18.4641 10.7 18.9092 10.8791 19.2374 11.1979C19.5656 11.5167 19.75 11.9491 19.75 12.4V13.25H16.25V12.4ZM23.25 23.45C23.25 23.6754 23.1578 23.8916 22.9937 24.051C22.8296 24.2104 22.6071 24.3 22.375 24.3H13.625C13.3929 24.3 13.1704 24.2104 13.0063 24.051C12.8422 23.8916 12.75 23.6754 12.75 23.45V14.95H14.5V15.8C14.5 16.0254 14.5922 16.2416 14.7563 16.401C14.9204 16.5604 15.1429 16.65 15.375 16.65C15.6071 16.65 15.8296 16.5604 15.9937 16.401C16.1578 16.2416 16.25 16.0254 16.25 15.8V14.95H19.75V15.8C19.75 16.0254 19.8422 16.2416 20.0063 16.401C20.1704 16.5604 20.3929 16.65 20.625 16.65C20.8571 16.65 21.0796 16.5604 21.2437 16.401C21.4078 16.2416 21.5 16.0254 21.5 15.8V14.95H23.25V23.45Z" fill="white"/>
</svg>
