<svg width="21" height="21" viewBox="0 0 21 21" fill="none" xmlns="http://www.w3.org/2000/svg">
<path d="M9.08095 1.69371C9.71514 0.530842 11.3849 0.530842 12.0191 1.69371L14.0794 5.47148C14.32 5.91278 14.7463 6.22251 15.2404 6.31504L19.4699 7.10708C20.7719 7.35089 21.2879 8.93891 20.3779 9.90141L17.4217 13.0282C17.0763 13.3935 16.9135 13.8947 16.9782 14.3932L17.5319 18.6604C17.7023 19.974 16.3515 20.9554 15.1549 20.3874L11.2676 18.5421C10.8135 18.3266 10.2865 18.3266 9.83244 18.5421L5.94512 20.3874C4.74853 20.9554 3.39768 19.974 3.56812 18.6604L4.12184 14.3932C4.18652 13.8947 4.02369 13.3935 3.67836 13.0282L0.722147 9.90141C-0.187831 8.93891 0.328149 7.35089 1.63008 7.10708L5.85961 6.31504C6.35369 6.22251 6.78 5.91278 7.02067 5.47148L9.08095 1.69371Z" fill="currentColor"/>
</svg>
